<?xml version="1.0" encoding="UTF-8"?>
<svg id="Calque_2" data-name="Calque 2" xmlns="http://www.w3.org/2000/svg" xmlns:xlink="http://www.w3.org/1999/xlink" viewBox="0 0 261.3 189.2">
  <defs>
    <clipPath id="clippath">
      <path d="M165.9,84.6l-.8-.9c0,0-.3-.3-.4-.4-.3-.3-.6-.6-.8-1,0-.2-.2-.4-.2-.6,0,.6.1,1.2.6,1.9.4.7,1.3,1.4,2,2,0,0,0,0,.1.1-.1-.4-.2-.8-.3-1.2h-.2ZM159,97.4c-.2-.4-.2-.8-.2-1.1,0-.1,0-.3,0-.4,0,0-.1-.2-.2-.3-.2-.2-.4-.5-.5-.8,0-.3-.1-.6-.2-1,0,0,0-.2,0-.3,0,0,0,0-.1,0-.3,0-.8,0-1.2-.3l-1.1,1.6c.2.3.6.5.9.8.9.8,1.9,1.6,2,2.7,0,.4,0,.7,0,.9,0,0,0,.1.1.2.1.1.1.3.2.4.3.1.8.4.9,1,0,0,0,.1,0,.2.3-.4.6-.8.8-1,.2-.3.4-.5.5-.8-1-.7-1.6-1.2-1.8-1.7ZM28.5,54.9v104.2h196.6V54.9H28.5ZM153.9,79.5c.1,0,.3,0,.5-.1l1.2.6v.2c-.2,0-.4,0-.7.1-.6,0-1,0-1.4,0h-.4c.5-.1.8-.4.9-.8ZM48.8,108.9c.2,0,.5,0,.7,0l.3-.3s0,0,0-.1c.3.2.4.5.4,1s0,.6-.2.7h-.7l-.7-1.2s0-.1.1-.2ZM69,151.6h0s-.2-.6-.2-.6l.2-.3h-.3c-.6-.6-1-1.2-1.2-2-.3-.8-.7-1.4-1.2-2-.8-.8-1.6-1.9-2.4-3.3-.8-1.4-1.2-2.7-1.1-3.8,0-.6.1-.9.3-1.2v-.2h-.1c-1.6-1.9-2.6-4-3-6.1-.1-.2-.2-.4-.2-.7s-.1-.4-.3-.7c0,.3,0,.5,0,.8-.1-.1-.3-.3-.4-.5,0-.1,0-.3,0-.3v-.5c0-.2-.1-.3-.3-.3s0,0,0,0c0-.4,0-.8,0-1.2l.3.4.2-.8-.3-.2c0,0-.2,0-.2,0h-.2c-.6-.9-.6-1.6-.6-2.2,0,0,0-.1,0-.2-.2-.1-.4-.3-.5-.5-.8-1.4-1.4-2.3-.9-4.3.2-.7.6-1.1.9-1.3h0c0-.2-.1-.3-.3-.6-.4-.5-1-1.3-.6-2.7,0,0,0,0,0-.1-.1-.2-.2-.5-.3-.7,0-.1-.1-.3-.1-.3-.2-.2-1-1-1.6-1.5-.2.2-.4.3-.7.4.4.6.4,1.2,0,2.1-.3.6-.8,1-1.2,1.4-.5.4-.7.7-.8,1.1-.3,1.7,0,3.4.1,5.2.1,1,.3,2,.3,2.9l-.8,1h-.2c-.3,0-.5,0-.7-.2h-.5c0,0-.4.1-.4.1-.7-.3-1.4-.6-1.4-1.6-.2-.1-.3-.2-.4-.4-.3.7-.5,1.4-.6,2-.1,1.3.6,3,1.2,4.5.6,1.4,1.1,2.6,1,3.6-.1.9-.7,1.3-1.1,1.4-.2,0-.4,0-.6,0-.4,0-.7,0-1-.3-.8-.5-2.7-4-3.4-5.9-.5,0-1,0-1.5-.2-.2,0-.3,0-.5,0,.2-.8.3-1.7.5-2.5.7-3.3,1.3-6.4,1.9-9.4.6-2.9,1-4.7,1.1-5.2-.3-.4-.1-.9.6-1.2.7-.4,1-1,.9-1.7,0-.7,0-1.2.2-1.5l.7.2c.2.4.3.7.3.9v.4c0,.1,0,.2.2.4.2.2.5.5,1.1.9.1-.2.2-.4.3-.6.1-.2.2-.4.2-.6l-.2-.3c.4,0,.7.2.8.5h1.8c-.2-.7-.3-1.2-.3-1.5.6,0,1,.2,1.2.7.3.5.8.7,1.6.7s.5-.2.5-.5c0-1-.5-1.7-1.4-2.1-.9-.4-1.4-.9-1.4-1.4v-.8c.2-.2.5-.3.8-.3s.7.3,1,.9c.3.6.6,1,.8,1.2.3.2.7.6,1,1,.3.4.7.8,1,1,.9.7,1.5,1.4,1.9,2.2.4.8.7,1.6,1.1,2.4.3.8.7,1.7,1,2.5.3.8.8,1.6,1.5,2.2,1.1,1.1,1.8,2.7,2.2,4.6.1.6.2,1.1.4,1.7.1.5.4.9.7,1.4,0,.3.2.5.3.6,0,0,.2,0,.3,0,.8.8,1.3,1.8,1.6,2.8-.2.3-.4.7-.5,1.1-.8,3.2-.6,4,.3,7.1v.2c.5,1.7.9,3.5,1.2,5.3.4,2,.8,4,1.4,5.9l-.5,1.1ZM94,102.2h0c-.7.4-1.2.6-1.7.6h-.5c0-.1-.8-.5-.8-.5l-.4-.3-.2-.3c.2,0,.4-.1.6-.1h1.2c.4,0,.9-.1,1.5-.3.3.2.5.5.4.9,0,0,0,0,0,0ZM99.3,96.1c-.6,0-1.2.2-1.9.4-.7.1-1.4.4-2,.7-.6.3-1.2.7-1.6,1.2-.5.5-.7,1.1-.7,1.9v.3c-.4.2-.7.3-.9.3l-1.4-2-.7.3c0-.2,0-.3,0-.4,0,0,0-.2,0-.4h-.3c0,.1-.3.7-.3.7,0-.2-.3-.3-.6-.3s-.4.1-.5.4c-.1.3-.4.4-.6.4s-.5,0-.6-.1l-.3-2.9c-.3.2-.4.4-.4.6,0,.2,0,.5-.2.6h-.4c-.5-.8-.9-1.4-1.4-1.8s-.6-1.2-.5-2.2c0-.5,0-.9.1-1.3,0-.4.2-.8.3-1.3,0-.6,0-1.3-.5-2.2-.4-.9-.6-1.8-.6-2.8,0-1.5-.2-3-.5-4.6-.1-.7-.2-1.3-.3-2l.2-.2c.2-.1.5-.2.7-.2s.3,0,.5.1c.5-.7.8-1.5,1.1-2.2.3-.9.7-1.8,1.3-2.6.6-.7,1.5-1.3,2.4-1.8.6-.4,1.3-.8,1.6-1.2.2-.2.5-.7.7-1.2.4-.7.8-1.4,1.2-1.9.3-.3.8-.6,1.5-1.1.2-.2.6-.4.8-.5,0,0,0,0,0-.1,0-.2,0-.6.2-.9.2-.5.7-.9,1.1-1.3.4-.4.9-.7,1.3-1.3h.4c0,.4.2.9.4,1.5.3,1.1.5,2.3.5,3.6s0,2.6.2,4c-.2.2-.5.5-.9.8-.3.2-.7.6-.8.7-.3.4-.6.8-.9,1.3-.4.7-.9,1.5-1.8,2.2,0,.2,0,.4-.2.6-.2.4-.6.8-1,1,0,0,0,0,0,0,.3.1.8.2,1.1.3,1.4.4,2.4.6,2.9,1.2,0,0,0,0,.1,0,.6,0,1.3,0,2,0,0,.5,0,1-.1,1.5,0,.2,0,.5,0,.7,0,.2,0,.4,0,.7h0c0,.1,0,.2,0,.3s0,.2,0,.3c-.3,0-.7.2-1.1.4-.9.3-1.5.5-1.9.6h-.1c-.5,0-.9-.2-1.3-.3-.2-.1-.4-.2-.7-.2,0,0-.1,0-.2,0-.3,0-.6,0-.8.1.1.3.1.7,0,1h0c.1.5.2,1.2-.2,1.7-.3.3-.6.5-1.1.5s0,0-.1,0c.2.6,0,1.2-.3,1.6.2.2.3.5.3.8.3.2.5.5.7.5s.2,0,.4-.1c0,0,.1-.2.1-.7,0-.4,0-.9.2-1.3,0-.1.7-1.9,1.9-1.9s.4,0,.5.1l.2.3c0-.1.2-.2.3-.3.3-.2.6-.3,1-.3.1,0,.3,0,.3,0,0,0,.1-.1.2-.2.3-.3.7-.6,1.3-.7h.1c.1,0,.3,0,.4,0,0,.3,0,.5.1.8,0,.3,0,.6.1.9h0c0,.2,0,.5,0,.7,0,.3,0,.6,0,.9v7.6ZM101.1,81.8c0,.1,0,.3,0,.4v.2s-.2.2-.2.2c-.3,0-.5-.1-.8-.4,0,0-.1-.2-.1-.3,0-.3.3-.5.9-.6,0,0,.1,0,.2,0v.4c.1,0,.1.1.1.1ZM156.6,134.9c-.3-1-.9-1.8-1.7-2.3.2-.7.1-1.2-.3-1.7l-.2.2c0,.3.2,1.1.7,2.4.3.7.6,1.5.9,2.3-.1,0-.3.1-.5.1-.7,0-1-.7-1.2-1.1,0-.1-.1-.3-.2-.4,0,0,0,0-.1,0-.1,0-.2-.2-.4-.3l-.2-.3c-.3-.7-.9-1.2-1.6-1.8-.5-.4-1-.9-1.5-1.5-.2-.3-.4-.5-.5-.8h-.3c-1-.3-1.4-.8-1.6-1.3,0,0,0-.2-.1-.2-.9-1-1.8-1.6-2.7-2.1h0s0,0,0,0c-.7-.4-1.3-.8-1.8-1.3,0,0-.1-.1-.8-.9h0c-.2-.3-1.3-1.6-1.4-1.8-.4-.6-.7-1.2-.9-1.7-.5-1-.8-1.7-2-2.4-.8-.5-1.5-.8-2.1-.8s-.9,0-1.5.7h0c0,1.2,0,2.8.1,3.2,0,0,.1.2.2.2.2.3.5.7.6,1.3l.9.5.6.9c0,1.6-.9,2.3-1.4,2.8q-.5.4-.3.8l-.5.4.8.3c0,.6-.3,1.2-.7,1.7,0,0-.1.2-.2.2,0,0,.1,0,.2.1.2.1.4.2.5.5.1.3.2.6.2.8,0,.2,0,.4.2.6,0,.1.2.2.3.4.2.2.4.3.6.6v1.1c0,0-.2.5-.2.5h-.1c.1.4.2.8.3,1.3.1.5.3,1,.4,1.5h0c.2.7.4,1.5.7,2.3.2.4.7,1.3,1.2,2.2,0,.2.2.3.3.4l-.6.9v-.2c0,.2,0,.4-.2.6-.1.2-.2.4-.2.6,0,.6.3.9.9,1.2.6.2,1.1.3,1.6.3h.1c.1.4.1.7,0,1-.1.5-.5.8-.7,1,0,0,0,0-.1,0h-1.5c-.4-.6-.8-1.1-1.2-1.7-.6-.8-1.3-1.6-1.9-2.5-.2-.4-.4-.7-.6-1-.2-.3-.3-.7-.5-1,0-.1-.3-.3-.8-.6h0s0,0,0,0c-.2-.1-.4-.3-.6-.4l-1.5.2c-.4-.4-.4-.9-.3-1.6,0-.2,0-.5,0-.6,0,0,0-.1-.1-.2-.1-.3-.3-.6-.4-1.2,0-.4,0-.8,0-1.1,0-.3,0-.5,0-.7l.2-.2s0,0,0-.1c0,0-.2,0-.2,0-.7,0-1.4-.6-1.7-1.3-.2-.4-.3-.7-.4-1.1-.4-1.1-.5-1.5-1.7-2.2,0,0-.2,0-.4-.1-.3,0-.6-.1-.9-.3-.5-.3-.9-.8-1.4-1.3,3-3.5,5.3-7.1,6.9-11,.6-1.3,1.6-2.5,3.2-3.6,1.6-1.1,3.1-1.7,4.6-1.8.7,0,1.6,0,2.7.2,1.2.1,2.3.3,3.4.7.4.1.8.3,1.2.5,0,.7,0,1.2,0,1.4,0,.1.2.3.2.5l-.8,1.2c-.2,0-.4,0-.7,0s-.4,0-.6,0c.6.4,1.1.7,1.4,1.1.4.5.7,1.1.9,1.7.1.3.3.6.4.8h0c.3.6.5.8.7.9,0,0,0,0,0,0,.1,0,.2,0,.3,0,.6,0,1,.3,1.2.6.6.8,1.2,1.9,1.8,3,.5,1,1.1,2.1,1.6,2.8.3.4.7.8,1.1,1.1.4.3.8.7,1.1,1.1.3.5.6,1,1,1.6.3.7.7,1.4,1.1,1.8l.2.8c0,.2,0,.4-.2.7ZM171.4,83.9c0,.4,0,.7,0,1.1,0,.1,0,.3,0,.4,0,.6,0,1.3-.1,1.9-.1,2.3-.3,3.8-.5,4.5-.2.7-.3,1.7-.4,3.2,0,1.5-.2,3-.3,4.7,0,1.7-.2,3.2-.4,4.7-.1,1.5-.4,2.5-.6,3.1,0,0,0-.2,0-1,0-.8,0-1.6-.1-2.5,0-.9,0-1.7,0-2.5s0-1.1,0-1c0,.5,0,1.1-.2,2-.1.9-.4,1.7-.7,2.6-.3.9-.7,1.6-1.2,2.2-.5.6-1,.9-1.6.9l-.3-.3c-.2-.2-.2-.4,0-.5.2-.1.2-.4,0-.6,0,0-.2-.3-.7-.6l-1.7-.7c0,0-.2-.1-.4-.1s-.3.1-.6.4c-.2.2-.3.4-.4.6,0,.2-.3.4-.8.5-1-.3-1.6-1-1.9-2.3-.1-.5-.2-1-.2-1.4h0c0-.1,0-.3,0-.4,0-.3,0-.7.1-1.1h0c0-.2,0-.4,0-.6-.4.5-.8.8-1.1,1-.4.2-.7.4-1.1.7-.3.3-.6.6-.7,1.1-.1.4-.1,1.1,0,2.1-.3-.6-.4-1-.4-1.4,0-.4,0-.7.1-1,0-.3,0-.5,0-.8s-.1-.5-.4-.8-.7-.5-1.3-.8c-.6-.2-.9-.3-.9,0,0,.2-.2.4-.4.6-.1.2-.3.5-.4.8h0c.8-3.6,1.2-7.1,1.2-10.3l.3.2c.3-.2.5-.5.7-.8.3-.4.6-.9,1.1-1.2l1,.7v-.7c0-.2,0-.3,0-.3,0-1.1,0-2-.2-2.7-.2-.5-.8-1-1.4-1.4-.4-.3-.9-.6-1.3-1,0,0-.1-.2-.2-.2v-2.7c.2,0,.5-.3,1.1-.5.5-.2.9-.3,1.2-.2,0,0,.2.5.7,1.1.5.6.9.8,1.1.6,0-.8,0-1.6,0-2.6,0-.2,0-.3,0-.5,0-.4,0-.8,0-1.1,0-.1,0-.3.1-.4,0,.1,0,.2-.1.3,0-.5,0-1,0-1.5-.3-1.9-.5-3.8-.7-5.6-.2-2.1-.5-4.4-.8-6.5,0,0,0-.1-.1-.2,0,0,0-.2-.1-.3,0-.4,0-.7,0-1s0-.8,0-1.2c0,0,0-.1.1-.2,0-.1,0-.5-.1-.8,0-1.3.3-2.5.5-3.8.3,0,.5,0,.6,0,.3,0,.6,0,.9.3,0,0,0,0,0,0,0,0,.2,0,.3,0l.8.8c.1.7,0,1.3-.1,1.8,0,.3-.1.5-.1.7,0,.8.3,1.6.7,2.5.2.4.3.8.5,1.2.2,0,.6.1.9.5.2.4.2.7.2,1,.4.4.9,1.1.4,2.3.2,0,.3-.1.4-.1l.9.6,1.4,2.9s0,0,0,0c.2,0,.6,0,.9.4h.1c.1.3.2.5.2.6,0,.3,0,.4.1.5.3.4.6.8.8,1.1.7.9,1.2,1.7,1.8,3,.3.3.8.7.7,1.4,0,.1,0,.3-.2.5.7,1.2,1.4,2.3,2.2,3.5,0,0,0,0,0,0,0,0,.2,0,.4,0l.2.2c0,.2,0,.4,0,.6,0,0,0,0,0,0Z" style="fill: none;"/>
    </clipPath>
  </defs>
  <g>
    <path d="M89.6,84.8c.9,0,1.5-.1,2.2.5.3-1-.6-.8-1.4-1-.4,0-.7.2-.6-.5,1.5.3,2.6-.6,4-.5.8,0,1.2.6,1.9.5.7,0,2.5-.9,3.2-1,.6,0,1.3,0,1.9,0,.3,0,.9.2.8-.2-1.1,0-2.2,0-3.2,0-.9,0-2.1.6-2.7.7-.6,0-1.1-.4-1.7-.4-.4,0-3.7.3-4,.4-.2,0-.6,1.1-.5,1.4Z" style="fill: #939e31;"/>
    <path d="M74.8,143.2c.4,0,.5.2.4-.3-.2-1-.2-1.9-.2-2.9,0-.5.4-.8.4-.9s-.4-.4-.3-.7c0-.5.5-1.5.9-1.8.2-1.3-.3-2,.3-3.9.2-.6,1.4-1.9.7-2.3,0,.6-.5,1-.7,1.4-.3,1.4-1.5,5-1.5,6.1v5.4Z" style="fill: #939e31;"/>
    <path d="M90.4,90.3c.1-.4-.4-.6-.4-.9,0-.3.8-1.1.4-1.5,0,0-.7.2-.7.2-.2.3,0,2.1.7,2.1Z" style="fill: #939e31;"/>
    <path d="M103,87.1c-.3-.1-1.3-.8-1.3-.8-.8,0,.3.9.4.9.3,0,1.1.5,1-.1Z" style="fill: #939e31;"/>
    <path d="M77.2,135.9l-.5-.6c0,1.2-.2.8-.7,1.2-.1.7-.4,1.2-.5,1.9l1.7-2.5Z" style="fill: #939e31;"/>
    <path d="M210.2,104.8c0-.3.9-1,.2-1.2,0,.4-.5.7-.4,1,.2,1.3,1,.5,1.5.6.3,0,0,.4.1.5.1.2.3.4.4.7,1.6-1.1-.7-1.8-1.8-1.7Z" style="fill: #939e31;"/>
    <path d="M189,96.1c.1-.6-.3-.3-.6-.3-1.7-.2-3.3-.8-5-1.1-.5-.3-.4-1-.5-1.1-.7-.8-.4,1.4.6,1.6.9.2.3-.4,1.3.5.6,0,1.5,0,1.9,0,.7.2,1.9,1.7,2.2.3Z" style="fill: #939e31;"/>
    <path d="M99.1,88.2c.5,0,.6.4,1.1.5.8.2,1.8-.3,2.4.5l.4-.7-4.1-.5c0,0,0,1.6,0,2,0,.2-.2.1-.3.1,0,.3,0,.6,0,1,1-.2.2-2.6.5-2.9Z" style="fill: #939e31;"/>
    <path d="M173.4,87.7c-.2-.5.6-2.3.5-2.4-.6-.6-.7,1.4-1.1,1.4-.7-.5-1.6-1.8-1.6-2.6-.6,0-.5,0-.5.5.2.3,2.1,3.6,2.7,3.1Z" style="fill: #939e31;"/>
    <path d="M113.6,82.2c-.5-.5-2.2-2.5-2-3.1,0-.3.6,0,.5-.4-2,0-.2,2.3.4,3.1,1.5,1.8,3.1,3.1,4.3,5.3.4.7,0,1.4,1.4,1.2,0-.4-.5-.3-.7-.6-1.2-1.6-2.3-3.7-3.4-5.3,0,0-.3,0-.4,0Z" style="fill: #939e31;"/>
    <path d="M137.1,96.5v-3.1c-.4,0-.2.5-.2.8,0,.5,0,1.2,0,1.6,0,.2-.2.1-.3.1,0,.4-.2.6.5.5Z" style="fill: #939e31;"/>
    <path d="M217.5,117.7c.4-1.5.2-3.2,0-4.8-1.5-.4-.7-.5-1.2-1.3-.6-.8-1.6-1.9-1.2-3.1.5-1.4,3.2,1.5,3.8,2,.4.4,1,1.6,1.1,1.7.2.1.6,0,.5-.4-.1-.3-.9-.7-.7-1.3l.7.5c.2-.2-.9-1.6-1.2-1.9,0,.6-.1.6-.2,0l-.3-.2c0,0,.2,0,.3,0l-1.1-1.2c-.2,0-.2.4-.1.5-.2-.2-.4-.3-.6-.7-.2-.4-.3-1.2-.4-1.2-.2-.2-1.3.3-1.8.2-.6,0-1.3-.7-1.7-.7-.5,0-.9,1.3-1.6,1.2,0-.3,0-1,0-1.2,0,0-.4-.3-.6-.2-.5.1-.2,1.6-1.1,1.4.4-.8-.4-1.9-.4-2.3,0-.4,1.9-2,0-2.3-.3,0-2.2.3-2.5.4-.9.3-2.9,1.6-3.8,1.8-.4,0-4.3.5-4.6.5-.8,0-1.2-.5-1.8-.7-.9,0-3.5-.2-4.2-.7-.3-.2-.5-1.1-.4-1.2.3-.3,1.5.7,1.8.6.2,0,.6-.5,1-.6.6-.1,1.2,0,1.8-.2.5-.1,1.4-.9,1.9-1,.6-.1,2.6.5,3.2.1,0,0,.4-.9.9-1.4.7-.6,1.6-.8,2.4-1.2.4-.2,4.5-2.6,2.7-3-.5,0-3.5,1.5-4.3,1.7-2.2.7-4.6.4-6.4,1.4-1.3,0-2.2,1.2-3.5.6-.2,0-2.6-2-2.7-2.1-.7-.8-.1-1.8-1.5-1.8-.6,2.7-1.3,1.2-2.8.8-.8-.3-.9.3-1.8-.5-.5,0-1.2,0-1.6-.2-1-.6-1-2.3-2.2-2.9-.8-.1-.8,1.1-.8,1.2-.1.1-1-.4-1.3-.5-.7-.1-1.6,0-2.3-.1.7.9,1.5.2,2.4.5.6.2.8.9,1.4.9,0-.6.2-1.5,1-1.4-1.3,1.3-.5,2,0,3.3l-2.4-2.2c-4.1.3-5.1-5.1-4.9-8.2-.6.2,0,1.2-.4,1.7-.8,1.2-3.1-1.8-3.1-3.1-1.8-2.6-2.9-4.5-4.4-7.2-.4-.7-1.5-1.7-1.7-2.2-.2-.4.3-.5.5-.4.1,0,1.4,2.2,1.6,2.6.3.6.7,1.3.8,1.9.8-.4-.1-1-.2-1-.9-1.9-1.6-2.6-2.7-4.2-.2-.4-.3-.9-.3-1,0,0-.6-.1-.5.3,0,.1,1,1.5.1.8l-2.2-4.8c-.1,0-1.3,1-1.3,1.1,0,.1.4.4.4.8.4,2.3.8,4.6,1.1,6.8.2,1.5,0,2.8.2,4.1,0,.7.4,1,.6,1.5,0,.2.3.8-.1.7-1.1-1.7-.5-3.4-.8-5.1-.2-1.9-.8-4.1-1.2-6-.3-2-.4-4-1-5.9.2-1.1.3,1,.7.8.4-1.1-.4-1.4-.5-1.6,0-.2,0-.7,0-.8-.4-.5-.5.7-.7.5-.2-1.8-1.5-3.5-1.5-5.4,0-.7.4-1.5.3-2.3-1.1-.2,0,1-.4,1.4-.9-.9.3-2-1.3-1.7.2,1.8.5,3.6.7,5.5,0-.1-.6-.7-.5-1.2-.8.4.2,1.6.2,2,.6,4,.9,8.1,1.5,12.1.2,1.7-.2,4,0,5.7,0,.7.8,1,.3,1.8,1,.1.3-1.7.2-2.3-.1-3.6-.2-7.2-.5-10.8,1,4.5.3,9.1,1,13.4.1.7.8,1.2.7,2-.8,0-.6-1.3-1.1-1.8-.9-1.1-2.8-2.3-3.6-3.3-.3-.4-.9-1.9-1-2-.2-.1-1.2-.1-1.7-.4-.8-.3-1.2-1-1.8-1.3-.7-.4-3.7-2.2-3-.3-.1.2-.9-.6-.2-1.1,1.1-.7,4.5,1.9,5.5,2.5.8,0,.1-.2,0-.4-.8-.9-5.9-4.4-5.9-1.6,0,1.5,3,3,4.1,4.3.5.6,1.1,1.5,1.7,2.2.3.3.2,1.2.8.7-1.1-2.5-3.4-4.1-5.4-6,0-.2.3-.2.4-.1.1,0,2.2,1.8,2.5,2,1,1,2,2.8,3,3.8.8.9,2.5,1.6,2.9,2.9.3.9.3,2.1.2,3.1,0,.6-.6,1.5-.5,1.9.2.7,1.3.2,1.7.4.2.1.2,1.5.4,1.9.2.4.6.7.8,1.2.2.5,0,1,.2,1.4.2.6,2.3,1.9,2.3,2-.9.7-2.3,3.7-3.5,3.7-1,0,0-1.3-.2-1.8,0-.3-.6-.4-.8-.6-.1-.2,0-.4-.1-.5-.6-.9-.1-.7-.3-1.5-.2-1.2-2.6-2.5-3.2-3.6l2.7-3.9c-1.6.4-1.8,2.2-3.3,2.9-.9-.5-.5-1.3-.7-2-.2-.7-.5-1.5-.6-2.2-.1-.6.3-2-.5-1.8.2,1-.4,1.7-.5,2.5-.1,1.2.4,2.5.3,3.8,0,.6-.4,1.3-.4,1.7,0,.6,1.2,2.1.6,3.2l-1.7-1.1,1.5,2c-.9.3-2-.7-2.7-.6-.4,0-1.2,1-1.7,1.3.3-.6.4-1.3,1.4-1.6.9-.3,1.4.5,2.3.4-.5-.4-1-1.8-1.5-1.3l.2.6c-2.8-.2-2.8,2.5-5.9,1.8-.8-.2-2.1-1.1-2.5-1.8-.3,0,0,1,0,1.2-.5-.7-1.2-1.8-1.4-2.6-1.2-.3-1.2,1-1.6,1.2-1,.4-1.9-.7-2-1.6,0-.6.3-.7.4-.8,0-.4-.2-1.9-.1-2.3,0-.6,1.1-1.8.6-3l-.5,2.1c0-.8,0-1.7,0-2.5,0-.7-.5-1.8-.8-.6-.6,1.8-.6,4.6-1.5,6.4,0,.1-1.1,1.3-1.2,1.3-.8,0-1.6-1.2-2.2-1.7-2-1.6-3.2-3-5-4.5-2.1-1.8-2.1-1.9,0-.2.2-.7-.4-.7-.6-1-.2-.3-.4-1-.5-1.1-.2-.2-1.3-.2-1.7-.4-.2,0-3.8-2.9-4-3.1-.6-.7-1-2.7-.9-.4l-5.5-5.8c-.3-.3-1,0-1,.2,0,.1,1.7,1.7,2,2.2.2.2.2.5.2.6,1.9,2.1,3.2,4.8,4.9,6.6.8.8,3.2,1.1,3,2.7l-1.1-1.2c-.3,2.7,4.4,2.8,3.4,5.6,0,.2-1.2.8-1.4.8-.4,0-3-1.3-3.2-1.1-.5.5,1.6,1,1.7,1.2-.3,0-.7,0-1.1,0-.5-.1-.9-.8-1.2-.2-.2.3,0,.7-.2.9,0,0-1.2.6-1.7,1,.6-.9.7-.8,1.2-1.3.4-.4,1.1-2.4.3-1.5,0,0-.1.6-.4.9-1.1,1.3-2.5,2.6-3.5,3.9,0,.2.3.1.5.1-.1.2-1.4,1.5-1.5,1.4,0,0,0-.3-.2-.5-.4-.2-1.4,0-1.7-.2-.5-.4-.4-1.3-1-1.7-.4.3-1.2,1.1-1.7.9-.3,0-1.2-1.4-.4-1.4,0,.3.2.6.3,1l1.9-.7c-.2-.8-1.5.4-1.7.2,0-.3,0-1.4,0-1.4,0,0-2.2.1-2.8,0-.4-.1-1.8-1.1-2.4-1.3-.2-.8,2.2-2.1,2.9-2.4.4-.2,1.4-.1,1.7-.4.4-.3.8-2.5.5-2.8h-.5c1.2,3.2-3.1,2.4-4.5,4.3-.4-.5.9-1.1,1.2-1.2,1.6-.8,4.1-.6,2.7-3-.4,0-.6.5-.9.6-1.9.7-3.9.5-5.7,1.1-.2,0-.8,1.5-1.6,1.5.8.7,1.8.5,1.7-.6h.9c.5.6-.3.4-.5.5-.2.2-.2.5-.7.7-.7.3-1.5.2-1.6-.6,0-.5,1-.4.5-.8,0,0-1.5-.1-1.7-.3-.1-.1,0-.5,0-.7-.3-.9-.5-1.8,0-2.6,0-.8,0-1.6,0-2.4,0-.1,2.6,0,3,0,.3,0,1.3.5,1.4.4.4-.3-.7-.7-1-1-.5,0-1.3,0-1.7-.1-.6-.2-1.2-.9-1.8-.8-.5,0-.8.6-1.2.8-.4.2-1,0-1.1.2-.1,0-.3,1.4-.7,1.4s-.4-.6-.8-.5c.6,2-.7,1.1-.7,1.2-.2.3.6.9.6,1.3,0,.6-.6.6-.6.6.7-.6-.5-1.4-.2-2.1,1.2,0,.5-.2.6-.6,0-.4.5-.7.4-1.1-.4-.2-1,1-1.1,1.2-.3.9.2,2.1-.7,2.6-1.2.7-1.7,0-2.6-.7,0,.9.5,1.9,1.5,1.4l-.6.7c-.8-.6-2-3-2-3.9,0-.5.4-.5.4-.6.2-.4.7-1.6.7-1.7.3-.2,1.9,1.1,1.5-.7-.3-.1-.2,1-.7.5-.1-.1,1-2.1-2.2-.7-.1-.1.3-1.5.5-1.8.3-.4.6-.3.7-.4,0,0-.1-.5.1-.5.2,0,.5.3.9.2.8-.1,2.1-.6,3-.6.6,0,1.1.5,1.5.5.6,0,2.4-.6,3.3-.7,1.1-.1,2.1.1,3.2.1-.3-.7-1.6-.8-2.3-.9-3.3-.3-5.7.4-8.6-1.7,1.8.6,3.5,1,5.4,1.4-.4-.9-4.7-1.2-4.9-2,.1-.8,1.3-1.2,1.6-1.8.1-.3,0-.6.1-.7,1.5-1.2,1.7-2.2,2.8-3.6.4-.5,1.7-1.5,2-1.9.3-.7.2-2.5.8-3.6.2-.4,1-1,1.2-1.3,1.5-2.2,2.6-4.7,4.5-6.7v-.4c-1.3,1.2-2.4,2.6-3.3,4-.2-1.1,1.1-2.4,1.8-3.2.6-.7,2-1.7,2.3-2.5.2-.4.3-.9-.4-.7.5,1.2,0,.5-.8.8-.4.1-.5.5-.9.7l1.2-1.4c-2.2.6-3.6,2.9-5.2,4.3-.7.6-1.6.4-1.3,1.9,0,0,.4-.2.5-.2-.8,2-2.4,2.5-2.8,3.3-.2.4,0,.8-.3,1.2-.1.2-2,1.3-2.5,1.8-.6.6-1.4,2.4-1.9,3-.8.9-3.1,1.9-4,3-1.3,1.5-1.2,3.8-3.2,5.7-.4.4,0-1-.7-.6-.4,1.6-1.4,6.3-2.3,7.4-.1.1-1.7,1.5-1.9,1.5-.4.2-1,0-1.2.2-.2,0-.1.8-.8,1.2-.6.3-2.9.6-3.1,0,0,0-.1.1-.1.1-.2-.1-.2-.7.1-.1,0-.2,0-.6,0-.8-.3-.8-.7-1.5-.7-2.4,0-1.3.8-2.9.5-4.4l-.7,4.5c-.2,0-.4-.2-.4-.4-.1-1,.7-3.4.7-4.7,0-.3.2-.5-.3-.7-.6,3-.7,6.3-1.3,9.4,0,.2-.5.8-.4,0,.2-2.7,1-5.4,1.2-8.1,0-.3.2-.9-.2-.8.2.6-.4,1.1-.5,1.6-.4,2.7-.3,5.4-1,8,0,0-.6.4-.6.7-.1-.2-.3-.6-.2-1-1.3-.3-1.5.5-2,1.5-.9,1.8-1,3.4-.7,5.4-.9-.5-.7-1.6-.7-2.5,0-.5.7-1.5-.2-1.3,0,1.9-.7,3.6-1.7,5.2,0,0,.2-1.3.1-1.4-.7,1.7-1.4,1.8-3.3,1.7-.6-.5,2.2-2.4,2.4-3.3.1-.8-.5-2,0-3l-.4-2.1-.3,3.2c0,.4.2.7.2,1.1,0,0-.3-.1-.4-.2-.4-1.4,0-3.3.1-4.8-.6-.1-.6.2-.7.7-.2,1.4-.1,2.5-.6,3.9,0-.1-.2-.5-.1-.8.1-.9.3-1.8.3-2.7,0-.3.3-.8-.2-.8-.9,1.1-.1,2.8-.6,3.8-.3.6-1.2.7-1.5,1-.2.2-.3.8-.7,1.1-.7.7-2,1.1-2.6,2,1.4.1,2.5-1.5,3.4-2.3,0,0,0,.5-.2.8,0,.1-1.8,1.8-2,1.9-.2,0-1.3.1-1.5,0-.4-.3-.3-1.5-.5-1.8-.3-.3-1.4,0-1.8-.8-.2-.3-.4-1.6-.5-2.1-.3-1.7.1-2.5.1-3.8,0-.6-.4-1.3-.4-1.9.1-1.7,2.9-4.8,4.4-5.8.5-.3,2.3-1,2.4-1.2.4-.6,0-3.6-.4-3.1.3,3.1-.4,2-2.3,2.7-.5.2-1.1,1-1.8,1.3-1,.5-2.3.6-3.2.9-.9.3-1.6,1.2-2.7,1.1.3.6,1.4.8,1.6,0,1.8.9-.5.9-.6,1,0,0,.2.6,0,.9,0,0-1.1,1.2-1.2,1.3-1.4.4-3.3-1-1.8-2-1.1-.4-.3-1.4-.5-2.3.6.1.3,1.4.4,1.7.2.4.8.6.8.1,0-.5-.8-2.2-1.3-2.5v.5c-1.7-1-.4-4.2-3-3.6l.6-.7c-.8,0-.9.4-1.3.7.2-1.1-.4-2-.5-3.1.2-.2,2,.4,2.2-.5-.7.3-2.5,0-2.6.8l1.4,6.8.5-2.9v4.3l-.9-1.2c.2-1.3-1.6-6.6-1.2-7.4.4-1,2-.6,2.9-.7.4,0,.7-.4,1.2-.5,1.3-.2,2.6.4,3.7.3.4,0,.7-.2.4-.5-.2-.1-3.9-.7-4.3-.7-.4,0-.7.4-1.4.4s-3-1-3.6-.6c-.3.2-.5,1.1-1.1,1.6-.4.3-1.8.7-2,.9-.3.5.3,1.9-.1,2.6-.2.2-1.7-1.4-2-.4,0,.5,1.1,1.4,1,2-3,.1-.8.4-.2,1.3.8,1.4,0,1.5-.7,2.3-.1.5-.2.9-.3,1.4,0-.3,0-.6,0-.9l.3-.5c.3-1.1,1.4-2.2-.5-2.6,1.2,1.2-.3,2-.5,3.2-.2,1.3,0,3.8.7,4.9,0-.5,0-1,0-1.5,0,.5.2,1,.3,1.5.9-.3.4-.6.9-1.2.2-.3.6-.4.8-.5.4-.5.5-1.3,1.2-1.5,2.2.8,4.2,1.7,5.1,4,.7,1.7,1,3.5,1.5,5.2.1.4.6.8.6,1.3,0,.5-.8.9-1.1,1.3-.3.5-.2,1-.6,1.5-.7.9-4.1,2.7-4.3,3-.1.2,0,.6-.2.9-.1.3-.5.6-.6.9-.1,1.1,1.5,0,1.9.2,2.3,1.1-2.2,4.3-2.4,5.1,0,.3.2.7.2,1.1-.2,1-.8,1.9-.8,3,0,.4.4.6.4.7,1.2,0,1.2,0,0,.2,0,.7-.1,1.6,0,2.2.1.6.8,1.2.9,1.8.2.7,0,1.4,0,2.1.1.6.8,1.3.9,1.9.6,3.5-1.3,2.7-3.2,4.6,1.1-.4,3.3-1,3.6-2.3,0-.1,0-2.4,0-2.5,0-.5-.9-1.4-1.1-2.3-.2-1,0-2.1-.4-3.1.9.8.4,2.3.8,3.4.2.6,1,1.6,1.1,2,0,.3-.3,3.1-.4,3.3-.4.8-1.7,1.1-2.4,1.4-1.7.6-1.6.4-3.2,1.4-1.4.9-3.2,1.9-4.9,2,.2.7,2.2.3,2.8.2,1.9-.5,2-1.5,4.6-1.4.6-.2,1.1-.7,1.8-.7,1.1,0,2.8.4,4,.3,0,1,2.6,5.7,3.2,6,.3.2.5.2.8,0,.3,0,.4-.3.4-.6.2-1.6-2.5-5.2-2.2-8.1.3-2.5,3-7.8,3.4-2.1,0,0-.2,0-.2-.2-.2-.4-.1-1.6-.5-1.9-.2-.1-.8-.3-.7.1.9-.1.4.9.5,1.5,0,.2.4.1.5.3.3.7-.4.8.7,1.3,0-.2,0-.3,0-.5,0,.2.2.3.3.5.2-.1.4-.2.5-.5.1.2.2.5.5.5-.1-2.7-.9-5.6-.4-8.4.3-1.4,1.6-1.7,2.1-2.7.6-1.2,0-1.1-.3-1.7-.4-.7,2.3-4.1,3.3-1.7-.4.1-.6-.3-.9-.4-.9-.2-1.2.5-1.5,1.1.5.2.8-.6,1.1-.7.2,0,2.2,1.8,2.5,2.2.2.3.3.8.6,1.2.1.2.8.1.5.6,0,0-.4,0-.5.2-.5,1.7,1.1,1.8,1,3.3,0,.4-.8.6-.9,1.2-.4,1.6,0,2.3.8,3.6.1.2.5.3.6.5.2.7,0,1.5.5,2.2.4,0,.2-.5.2-.8,0-.5-.2-1.3-.4-1.8,0,0,.3-.1.5.2.8,1.7,0,4.4.3,5.4.1.4.7.7,1,1.2.2.5,1,3,1.1,3.5.2,1.1,0,2.7.2,3.6.2.8,1.2,1.7,1.5,2.6.3,1,1,3,1.2,3.8.2,1-.2,2.1,0,2.8.6,1.6,2.8,4.6,3.7,6.2.5.8,1.2,3,1.9,3.2,1.7.5-.4-2.7-.6-3.2-1.9-4.6-2.3-9.7-3.6-14.4-.9-3.3-1.2-4.3-.3-7.8.2-.7.6-1.5,1.1-2-.5-.7-1.6-.5-2.1-.9-1.4-1.1-.6-3.3,0-4.6,0-.2,0-.5.4-.3.4.2,1.2,1.1,1.8,1.4.7.4,3,1,3.2,1.1.3.3,1.2,2.9,1.3,3,0,0,.7.1.7,0l-1-2c.7-.1,1,1,1.6.9.3,0,.7-.9,1.1-.9-.3,1.2-1.2,2.7-1.2,3.9,0,.9.5,1.7.5,2.6,0,2.9-.2,4.2.2,7.2,0,.6,0,1.9,0,2.6,0,.6.8.8,1.2.5.4-.3-.1-4.4,0-5.5.1-.8.6-1.5.7-2.2.4-2.1,0-2.5,1.2-4.6.3-1.3.6-2.8,1-3.9.3-1,.6-1.1,1.2-1.8-.6,1-1.2,2.3-1.1,3.6.5-1.2.8-2.4,1.6-3.4,0-.1,2.7-2.5,1.3-2-.5.2-1,1.1-.7-.5l.4.5c0-.2,0-.5,0-.7.2.1.4.3.7.2-.5-.9.5-1.8,1.1-2.6-.2,1.7,1.9,1.3,2.1,1.4,0,0,0,1.7,0,2,0,.2-.4,0-.5.5-.1,1.2,0,1.8-.5,2.9-1.1,1.9-3.4,3.1-5,4.8-.3.3-.4.2-.3.8l4.6-3.7c1-1.3,1.5-2.1,1.7-3.7.2-.5.4-.9.5-1.4-.1.5-.4,1.1-.5,1.4h.7c-1.1,3.8-4.1,5.4-6.8,7.7,1,.5,1.6-.5,2.4-.6l-.7.8c.4.5,1.7,1,2.2.5.1-.2,0-.6,0-.7-.8.3-.8.3-.1-.2.4-1.1,1-1.9,1.7-2.5-.8.8-1.3,1.7-1.6,2.7,1.5-2.1,1.8-2,3.9-3.2.7-.4,1.4-1.5,2.1-2,.5-.4,1.1,0,.8-.9-.3.3-.6.3-1,.5.7-.9.7-1.6,1.2-2.6,0,.2-.3,1.4-.1,1.7.5-.4.3-1,.5-1.4.6-1.3,1.8-.8,2.8-1,.3,0,2.2-1.1,2.5-1.4,1.2-.9,4.3-4.8,5.2-5.1.7-.3,2.4,0,2.8-.4.1-.1.1-.5.3-.8.2-.3,1.2-1.8,1.3-1.8.2,0,.6.9,1.1.7l-.6-1.4c-1.2.4-1.8,2.4-2.5,2.8-.7.4-1.5.2-2.3.4-.2,0-2.5,1.5-2.9,1.8.7-.7,1.2-1.4,2.3-1.8.8-.3,2.2-.3,2.6-.5.8-.6,1.1-2.6,2.5-2.8,1.3-.2.9,3,2.5,3.1.3-2,.2-3.2,2.1-4.5-.1,1.8.5.2.8-.2-.5-.1.9-1.3,1-1,.6,0,1-1.3,1.6-.2.3.6-.2,1.1.9.9-.7-1-.9-2.2-.2-3.3h-.7c0-.1,1.2-1,1.2-1-.3.6-1,4.1.1,3.8.3,0,.2-.9.7-.7,1.1.4.4,3.1.7,4.1.2.7,1.2,2,1.2,3l1.2-.5c-.1,1.7,1.1,2,1.7,3,.2.2.2.5.2.6-.5-.4-1.4-1-1.7-1.5-.2-.4-.2-1.1-.5-1.2-.2-.2-.6.1-.8,0-.2,0-1.8-3.4-1.8-3.7,0-.5.7-3.4-.2-3.4,0,0-.8.5-.8.7,2-.3.2,1.2.5,2.7,0,.2,1.4,3.5,1.5,3.6.6.6.8.6,1.5,1.4.7.8,2.3,1.9,2.8,2.7.4.6,1.4,2.9,1.5,3.1.2.1.9.2,1.4.4,1.2.7,2.2,2.3,3,2.9.4.2.9.2,1.4.5,1.9,1.1,1.8,2,2.5,3.7.3.7,1.2,1.1.8.2-.5-1.2-.8-2.5-1.6-3.4.2-.4.6,0,.7.2.5.7.7,2.3,1.2,3.1.3.7,1,1.2,1.3,1.9h-.5c0,.5,0,1.1,0,1.7,0,.7.4,1,.5,1.4,0,.4-.1,1.6,0,1.7,0,0,.5,0,.7.2.6.5,1.2,1,2,1.3,0-1.1-2-1.6-2.3-2.2-.2-.4-.3-1.7-.4-2.3,0-.3-.3-.8.2-.8.5.7.3,2.7.6,3.1,0,.1,1.5.8,2.1,1.5.5.7.7,1.4,1.1,2,1,1.4,2.1,2.7,3.2,4.1.2-.2.5-.4.6-.6.3-.9-2.7-5-3.2-6.3-.8-2.1-1.2-4.3-1.9-6.4.3,0,.6.4.7.6.1.4-.2,1.1.3,1,.6-1.9-.7-1.9-1.1-2.8-.3-.6-.2-1-.4-1.4,0,0-.8-.4-.8-.9,0-.5,1-1.4.9-2l-1.4,1.3c.1.8.6,1.5.9,2.3,0,0-.5-.3-.8-.8-.3-.5-.6-1.4-.5-2,0-.3.6,0,.7-.1.2-.2-.3-1.7.8-1.2-.7-2,1.7-1.6,1.7-3.9l-2.4-1.2.2-1.3.7,1.4c.1-.7-.5-1-.7-1.6-.2-.7-.2-4.2,0-4.9.3-1.1,3.3-1,4.2-.9.7,0,1.5,1,1.3,1.2-.4.4-.6-.8-1.3-.9-.8-.1-1.5.2-2.2.2-.8,0-1.7-.6-1.8,1.2,1.5-1.6,3.2-1.1,4.8,0,2.2,1.4,2,2.6,3.2,4.4.1.2,1.9,2.4,2,2.5,1.1,1.1,2.9,1.7,4.6,3.5.4.4.3,1,1.3,1.3.4-.2,0-.6-.2-.8-.3-.5-.8-1.4-1.2-1.8,1.5,1.3,1.6,2.3,2.7,3.7,1,1.2,2.5,2,3.2,3.5.2.2.4.2.6.5.4.6.6,2,1,.1-.8-1-1.4-2.6-2.1-3.5-.5-.7-1.5-1.3-2.2-2.2-1.1-1.6-2.3-4.4-3.3-5.8-.2-.3-.7,0-1-.2-1.2-.5-1.7-2.8-2.5-3.8-.4-.6-1.8-1.3-1.9-1.4-.2-.3-.4-1.5.2-1.5.6,0,1.5.3,2.2.1-.2-.8-1.7-.1-2-.7.3-.2,1.7,0,1.7,0,.1-.1,0-3,0-3.7,0-.6.2-2.1.9-2.3.3,0,1.4.3,1.5.7l-1.7-.2-.3,1.4c.4,0,.9-.9,1.1-.9.4,0,1.8,1.8,2.2,2,.6.3,2,.5,2.5,1,.5.4.3,1,.5,1.4.2.3.6.5.8.9.3.8-.4,1,1,1.2.2,0,.6.2.5-.2-.8,0-1-1-1.3-1.7-.6-1-1.2-.4-.4-1.9,0,.3,0,.7,0,1l1.4,2.1-.7-2.5c1-1.5.5-4.1,2.2-4.9.6,1,1.2,1.7,1.5,2.9-1.2.3-1.6-.6-2.4-1.2.5,1-.4,1.5-.5,2.4.8.2.4-.6.5-.7.8-.6,3.5,3.2,3.6,4,0,.4-.8,1.3-.9,1.9-.1.7,0,1.5,0,2.2l.2-.7c.1-.3.5.8.9,1,.3,0,0-.4.1-.5,0,0,.7-.3.9-.6.3-.5.2-1.4,1.3-1.6v6.3c0,0,.7,1,.8,1.3.3.6-.2,1.1.9.9-1.7-3-1.5-6.5-1.6-9.8,0-.4-.1-.6.4-.7.3,2.2,0,5.1.3,7.2,0,.3,1,3.2,1.2,3.3.2.1.7-.2.7-.4,0-.1-.6-1.3-.6-1.7-.4-2.1-.5-4.2-.3-6.2l1.2.5c0-.9-.1-1.7-.2-2.6,0,.2.3.7.5.7l.5-1.9c-.4.2-1,.7-1,1.2,0,0-.2,0-.2-.2,0-.7,1.7-2.7,2.2-3.3.9-1.2.3-1,2-2-.2.2-1,1.3-1.3,1.4l-1.6,2.4c.5,0,.8-.6,1.1-.9.8-.9,1.2-2.5,2.8-2.2.1-.5-.5-.9-1-.7.2,0,.6-.7,1-.5,0,0,.7,2.2,1.2,1.7,0,0-.4-.6-.4-.9,0-.7,1.9-1.8,2.6-1.5-.6,1-.9,2.5.7,1.4-.6,2.7.4,1.7,1.5,2.7.4.4.7,1.5.7,1.6,0,0,1.4-.5,2.1-.5.7,0,1,.5,1.1.5-.4,0-1.3-.1-1.6-.1-.6,0-1.3.6-1.8.3-.3-.2-.3-1-.7-1.5-.5-.5-1.4-.5-1.6-.8-.3-.4,0-1.2-.1-1.4,0,0-.8,0-1.1-.5-.2-.3.3-.8.4-1.1.2-1-2.2.7-1.7,1.3.2,0,.9-.6,1-.5,0,0,0,.5.1.7.2.4.7.5.8.9.1.3,0,.8,0,1,0,0,1.2.1,1.6.5.5.5.3,1.4,1.5,1.6.9.2,4.5.2,5.6,0,.5,0,1-.2,1.3-.6l-2.4.4,2.4-.9c-.8-.2-1.6,0-2.5,0-.3,0-3.2-.7-3.3-.8-.5-.4-.2-2.3,0-2.9,0-.2,0-.5.4-.3.6.2,2.5,2.1,2.7,2.1.2,0,1.2-.8,1.8-.4l-1.5.9c2.7-1.1,3.6,2.3,5.7,2.6.7.1.4,0,0-.3-.9-.7-1.6-1.6-2.4-2.2-.6-.5-1.6-.6-2-1.3,1.7-.2,3.7,3.2,4.8,3.3,1.3.2,1.6-1.1,2.7-1.4.8-.1,1.5,0,2.3-.1.6-.1,3.7-1.2,3.9-1.1.2,0,2.6,2.4,3,2.8.3.4,1.2,2.3,1.8,1.4.8-1.2-1.6-3.6-1.8-4.5-.4-1.2,1.2-.5,1.7-.5,1.1,0,.8-.9,2.4.2,2,1.4,3.1,5.1,3.3-.2l-.5.2c-.3-1.5-.4-2.6,1.6-2.4,1.8.1-.2,1.1-.9,1.7,0,0-.1.5.1.5.5,0,2.1-.5,2.9-.3.3,0,.1.4.2.5-.5-.7-4,0-3.2,1,.3.4.6-.5.9-.6,2.1-.5,2.3,1.9,1.7,3.4-.4,1.1-2.3,2.3-1.7,3.4l2.4-3.1c-.4.9-2.2,3.2-2.2,3.5,0,0,.4.4.5.4,0-.6,2-3.1,2.3-3.1.7,0,.7,5.3-1.3,5.2.1-.4.4-.5.5-1-1,.5-1.8,1.5-2.6,2.4l-.2-.5c-1.7,1.2-3.5,2.5-5,3.9-.9-.3-1.8-.5-2.8-.4-.8.1-3,1.4-3.4,1.4-.2,0-2.9-1.1-3.1-1.2-.4-.2-1.8-1.3-2.2-1.6-1.7-1.4-2.9-3.3-4.2-5-3.4-1.3-3.1,3-.4,3.6,0-1.1-2.7-2.3-1.4-3.4,1.2-1,1.6.8,2.1,1.3.8,1,1.7,1.8,2.4,2.9-.2.4-.5,0-.7-.2-.9-.9-1.9-2.5-2.7-3.6h-.8c-.6.8.5,1,.9,1.6.9,1.5,1.4,3.4,2.3,4.9.4.6,3.2,3.5,3.2,3.8.1.6-1.2,1.3-1.6,1.5M219.2,118.2,187.3,132.2c0,0-.1.4-.6.5-.2,0-2.8-.4-3.1-.5-1-.3-1.8-1.4-2.6-1.7-1-.4-2.1-.4-3.2-.4l2.3,1.2c.5.7,1.3,1,1.8,1.5.7.7,1.8,2.7,2.3,3,.3.2,1.8.2,2.1,0,0,0,0-.4.2-.5.6-.4,3.8-1.5,4.2-.9.6.8-1.9,2-1.3,2.9.8-.7,1.5-2.1,2.3-2.8.8-.7,2.7-1.8,3.8-2,1.2-.2,3-.1,4,.2.4.1,1,0,1.2.6,0,.1-.2,1.8-.3,2-.4,1.5-2,2.9-2.9,4.3,0,.2.4,0,.5.1l3.1-4.5,1-1c.2,0,2,3.1,2.8,2.1.3-.4-1.9-3.3-1.7-3.6,0,0,.6,0,.7,0-.4.2.5,1.8.7,2.2,0,.1.5.6.7.7.4-1-1.2-1.5-1-2.2,0-.1,1.8-1.9,2.2-1.6-.3,1.1-.6,2.1,1,1.9,0-.4-.4-.2-.6-.5-.5-.6,1-1.5,1.1-1.7-.3.5-.9,1.2-.6,1.7.6-.5,1.1-1.5,1.7-2.1.1-.1.4,0,.4,0l-1.1,1.9c.9-.7,1.8-2.1,2.9-2.4.8-.2,3.4-.1,3.6-.4,0-.1-.4-.7-.1-1.2,0-.2,1.3-1.1,1.5-1.1.6,0,3.3,1.3,3.5,1.1-.8-2.9-3.2-2.4-3.2-6,0,.2.3,1.2.5,1.2l-.2-4.5c.1-.1,2.6.4,3,.5.5.1,1.1.7,1.5.6.6,0,1.3-1.2,1.8-1.5-.7-.3-1.1.9-1.8.8-.4,0-.8-.9-1.1-1-.8-.3-3-.2-2.8-1.6M103,58.6c-.2.4-.5.8-1,.7.2-.4.5-.8,1-.7ZM100.1,65c-.1.8-1.2,1.5-1.6,2.2-.3.7-.5,2-.6,2.7,0,.3,0,.7-.5.8.3-2.3.6-4.3,2.7-5.7ZM96.7,71.5c0,.4-.3.8-.7,1,0-.4.3-.8.7-1ZM93,76.6s0,0,0,0h0c0,0,0,0,0,0ZM92.5,81.9s0,.2,0,.2h-1.5c0-.5,1.2-.5,1.5-.2ZM63.2,96.6c-.2.5-.5.9-1,1.3.5-.4.8-.8,1-1.3ZM39.7,82.4s.3.8.2.9c-.9-.2-.9-1.4-.2-.9ZM41.6,88.1c-.3,0-1.6-.9-1.7-1-.1-.2,0-.7.4-.5.2.1.3.5.4.6.4.3,1.1,0,.9.8ZM41.8,83.3c-.5-1.2-1.1-3.5-.7-4.7l1.1,2.8c.2.4.3,1.9,0,2.2-.3.3-.4,0-.5-.3ZM43.1,85.3c-.2,0-.7-.5-.7-.6-.3-.7,1-.3.7.6ZM43.8,119.6c0-.7-.2-2.1.7-2.3,0,.1-.6,1.2.1.6-.1-1.1,0-1.5,1.1-2.1-.5,1.4-.8,2.8-1.9,3.8ZM49.7,98.6h.7v.5h-.7v-.5ZM49.1,117.4s0,0,0,.1c0-.3,0-.5-.1-.7,0,0,.1.3.1.5ZM46,96.8c-.4-1.2-.6-2.2-.7-3.5-.1-.4-1.1-2.2-.4-2.4.9-.2,1.7,1.3,1.8,1.9.3.3.7.7.7,1.3,0,.4-.7,2.8-.9,3-.4.4-.4,0-.5-.4ZM48.5,98.5c-.6.5-1.3.6-2,.3l1.5-2c.9-.6,1.5.9.5,1.7ZM49.5,118.8l-.3-.2h-.3s0,0,0,0c0,0,0-.2,0-.3,0,.2,0,.3.2.4h.3c0,.1,0,.1,0,.2ZM49.2,115.8c-.3-.3,1.2-1.7,1.5-1.4.3.3-.9,1.6-1.5,1.4ZM52.8,96.9c0-.4.1-.5.4-.7v.7c.1,0-.4,0-.4,0ZM55.9,111.2c-.4,1.3-1.3-1.3.3-.3.6.4.9,1.7,1.1,2.4-1.6-.1-.2-1.5-1.3-2.1ZM62.6,100.7c.4,0,.9-.1,1.2-.3-.4.1-.8.2-1.2.3ZM66.7,98.4s.5.9-.1.7c-.7-.3-.3-1.1.1-.7ZM65.3,100.3c.9-2.1,1.3.2.6.2,0,0-.3-.3-.6-.2ZM72.3,89.6c.8.6.6,1.8,1,2.6-1.6,0-1.1-1.6-1-2.6ZM83.4,121.6c.6,0,.9.4,1,1-.1-.5-.4-.8-1-1ZM97.9,91.2c-1-.5-.2-1.8-.2-2.6.3,0,.5,1.1.5,1.3,0,.4-.2.8-.2,1.3ZM124.2,96.7c1.8-1.9-.3-3.4-1.7-4.8.7.3,2.4,1.5,2.6,2.1,0,.3-.2.8,0,1,.2.3,1,.2,1.1.7-.9-.1-1.1.9-1.9,1ZM142.8,121.2c.6.8,1.7,1.3,1.8,2.4l-2.2-2.2c-.7-1.6-1.6-3.2-2.9-4.3.4-.3,1.2.6,1.3.8.4.5.6,1.1.9,1.6.4.6.6,1.2,1,1.7ZM152.3,98.6v.7c.1,0-.4,0-.4,0,0-.4.1-.5.4-.7ZM152.2,100c.4-.4.9.9,1,1.2-.5.2-1.2-1-1-1.2ZM154.4,100s.2,1.2.2,1.4c-1.1.2-.8-2.1-.2-1.4ZM156.3,112.2c.7.4,1.3,1.1,1.2,1.9l-1.2-1.9ZM157.3,119.1c-.4,0-.2-.5-.1-.7.2-.6.7-1.1.8-1.8.1-.8-.2-1.5-.1-2.2,1.1,1.6,0,3.3-.6,4.8ZM166.8,88.7c-.4-.5-1.8-1.3-2.3-1.8-.3-.3-1.2-1.4-1-1.7.8,1.2,2.8,2.3,3.5,3.2.4.4.4.9.6,1.3.9,1.2,1.9,2.6,1.5,0-.2-1.5-.8-2-1.7-3.1-.5-.3-.1.4,0,.5.5,1,1.5,2.1,1.4,3.4-.9-.5-.8-1.4-1.2-2.1-.9-1.4-3.2-2.6-4.3-4.2-1.3-2-.4-3.4-.7-5.5-.1-.8-.9-1.6-.4-2.5.6.6.7,1.6,1,2.3.7,1.4.9,2,1.5,3.3.3.6,1.2.9,1.3,1.7.4,0,.3-.3.2-.6-.2-1.1-.8-.9-1.2-1.5-.2-.4-1.1-2.5-1.4-3.2-1-2.3-2-5-2.6-7.4.8.4.6,1.7.8,2.4,1.2,3.2,3.1,6.1,4.4,9,.4.9.6,2.4,1,3.3.4,1,1.5,1.8,1.8,2.5.5,1.3,0,2.6.7,3.7-2.1,0-2.3-2.2-3.2-3.2ZM187.7,98.4v-.5c.3,0,.6.1.7.5h-.7ZM189.9,99.1c-.1.1-.7,0-.9,0,0-2.6,1.8-.7.9,0ZM208.1,131.5c0-.1.1-.3.1-.4,0,.1,0,.3-.1.4Z" style="fill: #b6bc3e;"/>
    <path d="M101.1,93.6l-2.3-1.7c-.2,0-.1.6-.1.7.1.5,1.9.7,2.4,1Z" style="fill: #939e31;"/>
    <path d="M195.5,103.4c1.1,0,2.7-1.2,3.6-1.4.8-.2,1.2,0,1.9.2.5,0,.4,0,.3-.5-.9,0-1.9-.1-2.7,0-.6.1-1.1.6-1.6.8-1.3.4-3.2,1.1-4.4.4-.1.7.2.4.5.5,1.2.5,2.5.5,3.6.9.3,0,.7,0,1,0-.3-.8-1.8-.2-2.2-.9Z" style="fill: #939e31;"/>
  </g>
  <path d="M34.7,88.5c.5-.9.7-1.9.7-3.3s-.1-2.8-.4-4c.9-.2,1.6-.9,2-2.2.4-1.3.6-2.3.6-3.1s0-1.3-.1-1.9c0-.6,0-1.2,0-1.8.2,0,.4-.2.5-.2.1,0,.3-.1.5-.2l.3.7c0,.2-.2.4-.4.7s-.2.5-.2.7c0,.7.3,1,1,1,.5-1.3.9-2.5,1.1-3.6l-.3-.3-1.4.3h0c0-.3.1-.5.4-.6.3-.1.5-.4.7-.6l-1-.7v.3c-.1.2,0,.6.1,1.1h-.6c0-.3.2-1.6.6-4,.4-2.4.9-5,1.5-7.8.6-2.9,1.1-5.5,1.6-8.1.5-2.5.8-4,.9-4.5-.3-.4-.1-.7.5-1.1.6-.3.9-.8.8-1.5,0-.6,0-1,.1-1.3h.6c.2.5.3.8.3.9v.4c0,0,0,.2.2.4s.4.4.9.8c0-.2.2-.4.3-.5,0-.1.1-.3.1-.5v-.3c.2,0,.5.1.6.4h1.6c-.2-.6-.3-1-.3-1.3.5,0,.8.2,1.1.6.2.4.7.6,1.4.6s.4-.1.4-.4c0-.9-.4-1.4-1.2-1.8-.8-.3-1.2-.7-1.2-1.2v-.7c.2-.2.4-.3.7-.3s.6.3.9.8c.3.5.5.9.7,1.1.3.2.6.5.9.9.3.4.6.7.9.9.8.6,1.3,1.2,1.6,1.9.3.7.6,1.4.9,2.1.3.7.6,1.4.9,2.1s.7,1.4,1.3,1.9c.9,1,1.6,2.3,1.9,4,0,.5.2,1,.4,1.5.1.5.5,1,.9,1.5,1,1,1.6,2.3,1.8,3.6.1,1.4.6,2.6,1.5,3.6.3.3.7,1,1.1,2,.5,1,.8,1.6,1,1.6.3,0,.6-.3,1-1,.4-.7.7-1.4,1.1-2.3.3-.9.6-1.7.9-2.5.3-.8.5-1.4.7-1.8.4-.6,1-1.7,1.9-3.3.9-1.6,1.8-3.3,2.7-5,.9-1.7,1.8-3.2,2.6-4.6.8-1.3,1.2-2,1.3-2.1.8-.5,1.1-1.3,1.1-2.6s0-.9,0-1.2c0-.3.1-.7.2-1.2l.6-.3c0-.4.2-.9.3-1.5,0-.6.2-1.2.4-1.9.2-.6.4-1.1.7-1.6.3-.4.7-.6,1.1-.6h1c.4,0,.8,0,1.3-.3.3.2.4.5.4.8,0,.3.2.5.6.5s.7-.4.7-1.1.3-1.1,1-1.1.8,0,1.5,0c.7,0,1.5,0,2.3.1.8,0,1.6.1,2.3.2.7,0,1.1.2,1.2.3.6.3.9,1,.9,2.2,0,1.2,0,2,0,2.5,0,1.4,0,2.9-.1,4.3,0,1.4-.1,2.9-.1,4.3,0,2.1.2,4.2.6,6.2.4,2,.6,4.2.6,6.3s.2,2.4.5,3.6c.3,1.1.5,2.3.5,3.6,0,2,.2,4,.5,6,.3,2,.5,4,.4,6,0,.6,0,1.1-.1,1.7,0,.6-.1,1.1-.1,1.7s0,1.6.2,2.4c.1.9.2,1.7.2,2.4v7.6c-.6,0-1.2.2-1.9.4-.7.1-1.4.4-2,.7-.6.3-1.2.7-1.6,1.2s-.7,1.1-.7,1.9v.3c-.4.2-.7.3-.9.3l-1.4-2-.7.3c0-.2,0-.3,0-.4,0,0,0-.2,0-.4h-.3c0,.1-.3.7-.3.7,0-.2-.3-.3-.6-.3s-.4.1-.5.4c-.1.3-.4.4-.6.4s-.5,0-.6-.1l-.3-2.9c-.3.2-.4.4-.4.6,0,.2,0,.5-.2.6h-.4c-.5-.8-.9-1.4-1.4-1.8s-.6-1.2-.5-2.2c0-.5,0-.9.1-1.3,0-.4.2-.8.3-1.3,0-.6,0-1.3-.5-2.2-.4-.9-.6-1.8-.6-2.8,0-1.5-.2-3-.5-4.6-.3-1.5-.5-3.1-.4-4.7,0-1,0-1.9-.5-2.6s-.6-1.4-.5-2.2c0-.4,0-.7.2-.9.1-.2.2-.4.2-.5,0-.2-.2-.7-.6-1.4-.4-.8-.7-1.2-.9-1.4h-.3c-.2,0-.3,0-.4.2,0,.1-.1.3-.2.4,0,1.1-.3,2.3-1,3.5-.7,1.2-1.4,2.4-2.3,3.6-.9,1.2-1.7,2.4-2.6,3.6-.9,1.2-1.6,2.4-2.1,3.5,0,.5-.1.7-.4.7-.8,0-1.2,0-1.4-.1,0,0-.5,0-1.3.3l-1.3-.4c-.3,0-.4.3-.4.6s-.2.5-.6.4l-2.1-5.7v-.3c.1,0-.1,0-.1,0-.5-.5-.8-1-1.1-1.7-.2-.7-.6-1.2-1.1-1.7-.7-.7-1.4-1.6-2.1-2.9-.7-1.2-1-2.3-.9-3.3,0-.5,0-.8.3-1-1.4-1.7-2.3-3.5-2.7-5.4,0-.2-.1-.4-.1-.6s0-.4-.3-.6c0,.5,0,1-.3,1.6,0,.4-.2,1.1-.3,2.1,0,1-.2,2.1-.4,3.3-.1,1.1-.3,2.1-.6,3-.2.9-.5,1.3-.8,1.3h-.1l.7.9c0,0-.2-.1-.2-.1s-.1,0-.2-.1c-.2,0-.4,0-.6.3.2.3.3.6.3.9s.2.5.6.7c-.5,0-.8,0-.9.4-.1.3-.2.7-.3,1.2,0,.5,0,.9-.1,1.4,0,.4-.2.6-.5.6s-.5,0-.6-.1c.2.3.3.6.3.9v.9c0,2.2-.4,4.4-1.1,6.7-.7,2.3-1.3,4.5-1.6,6.7-.3,0-.5-.2-.7-.7-.2-.5-.4-1-.6-1.6-.2-.6-.5-1.1-.7-1.7-.2-.6-.5-.9-.9-1h0c-.3.4-.6.6-1,.6-.6,0-1.1-.2-1.6-.6-.5-.4-.8-.9-1-1.4,0,.5.1.9.1,1.4s-.1.9-.4,1.4c-.3-.2-.4-.5-.4-.9v-.9c0-.3,0-.5-.3-.7,0,0-.2-.1-.3,0,0,0-.2,0-.4,0h-.9l-.3.7c0,1,0,1.7-.1,2.1-.2,0-.5-.3-.9-.7v-.7c.4-.8.7-1.3.9-1.6l-2.3-1c0-1.3.2-2.7.5-4.2.3-1.5.6-2.9.8-4.3-.4.6-.7,1.3-.9,2.3-.2,1-.5,2-.6,3.1-.2,1.1-.4,2.2-.5,3.3-.1,1-.3,1.9-.5,2.6,0,0-.1.2-.1.3s0,.1-.3.1-.3,0-.4,0c0,0-.2,0-.4,0v-.3ZM47.1,41.6c.6,0,.9.3.9,1s0,.5-.1.6h-.6l-.6-1c0,0,.1-.2.1-.4s0-.2.3-.2ZM52.5,75.8c0-.2.1-.4.1-.6s0-.5.1-.6l-.6-.4h-.1v1c0,.3.1.5.4.7ZM53,73.7h0c0-.1-.3-.9-.3-.9-.2.2-.3.3-.3.4v.3c.1,0,.6.1.6.1ZM52.7,72.4h.3c0-.1-.3-.4-.3-.4,0,0-.1,0-.1.1,0,0,.1.2.1.3ZM53.5,71.4c0-.2.2-.8.4-1.8.2-1,.4-2.1.6-3.3.2-1.2.4-2.3.6-3.4.1-1.1.2-1.8.2-2.1v-.4c0-.2,0-.3-.3-.3s-.2,0-.4.3c0,1.9,0,3.7-.5,5.5-.4,1.8-.7,3.6-.9,5.5h.3ZM55.4,59.4v-.7c.1,0-.1-.1-.1-.1-.2,0-.3,0-.3.3l.4.6ZM59,67.4h0c0-.1-.1-.1-.1-.1h.1ZM63.4,69.7c.5.3.9.4,1.1.4h.3v-.3c0-.4-.1-.7-.4-.9-.3-.2-.6-.3-.9-.4,0,0,0,.2,0,.3,0,0,0,.2,0,.3v.6ZM73.2,62.1h.9v-.4c-.2-.2-.3-.4-.3-.6s0-.5-.3-.6c0,.3,0,.5,0,.8-.1.2-.2.5-.2.8h0ZM74.2,60.2c.3-1.5,1-2.8,2.1-3.8,1.1-1,2.1-2.1,2.9-3.2-.3-.8-.3-1.3,0-1.6s.5-.8.5-1.5-.1-.7-.4-1c-.2.7-.6,1.5-1.2,2.6-.6,1.1-1.3,2.2-2,3.3-.7,1.1-1.3,2.1-1.9,3-.5.9-.8,1.5-.8,1.8s0,.3.2.3.3,0,.5.1ZM84.3,39.2l.3-.4-.3-.3v.3c-.1,0,0,.4,0,.4ZM86.6,93.7v.3c.1,0,.6-.3.6-.3v-.4c-.1,0-.6.4-.6.4ZM87.8,96.9l.3.3v-.3c.1,0-.1-.7-.1-.7,0,0-.1.2-.1.4v.3ZM89.6,95.4v1c.1,0,.6-.9.6-.9v-.6c-.1,0-.6.4-.6.4ZM90.3,91.1h.1c0,.1,0-.1,0-.1,0,0-.1,0-.1.1ZM98.5,90.5v-.4c.1-.2,0-.3,0-.3v.3c-.1.2,0,.3,0,.4Z" style="fill: #a93c23;"/>
  <path d="M99.9,82c0-.3.3-.5.9-.6.6-.1,1-.3,1.3-.4-.2-.8-.5-1.4-.8-1.8-.3-.4-.6-1-.8-1.8h-.1c0,.1.1,0,.1,0,.2.2.4.4.6.5.2.1.4.2.6,0,.2,0,.5-.2.9-.6.4-.4.8-.8,1.2-1.2.4-.4.8-.9,1.1-1.4.3-.5.5-.9.6-1.2.5-2.2,1.3-4.5,2.6-6.8.7-1.3,1.1-2.6,1.3-3.7.2-1.1.8-2.3,1.9-3.6,2.7-3,4.7-6.3,6.1-9.7.5-1.1,1.4-2.2,2.8-3.1,1.4-.9,2.7-1.5,3.9-1.6.6,0,1.4,0,2.4.1,1,0,2,.3,2.9.6.9.3,1.8.7,2.6,1.1.8.5,1.4,1,1.6,1.6.3.7.6,1.3.9,1.8.3.5.6,1.1,1,1.8.2.5.4,1.4.7,2.6s.7,2.3,1.1,3.1c1,1.9,1.9,3.9,2.4,5.9.6,2,1.4,4,2.4,5.9l.9,1.7c.3.6.4,1.2.4,1.9s.3,1.8.8,3.2c.5,1.4,1,2.4,1.4,3.1.3.9.5,1.5.6,2.1,0,.5.2,1,.3,1.4,0,.4.1.7.1.8,0,.8.2,1.5.6,2.1.4.7.6,1.4.6,2.1s-.3,1.2-.8,1.6c-.5.4-1,.9-1.4,1.4-.2-.2-.4-.4-.5-.7-.1-.3-.4-.4-.6-.4s-.8,0-1.2.1c-.4,0-.9.1-1.4.1s-.7-.2-1.1-.5c-.3-.3-.6-.6-.9-.8,0-.3-.2-.8-.3-1.6,0-.8-.3-1.6-.5-2.4-.2-.8-.5-1.4-.8-2.1-.3-.6-.7-.9-1.1-.9h-.1c-.8.2-1.4.3-2,.3s-1.2,0-2,.1c-2.2.2-4.3.5-6.3.9-2,.4-4.2.7-6.3.9-1.5,0-2.5,1-3,2.6-.5,1.6-1.2,2.9-2.2,3.8-1,1-1.9,2.1-2.6,3.6-.5.8-1,1.1-1.7,1.1s-1,0-1.9-.1c-.9,0-1.9-.2-2.9-.4-1-.1-1.9-.3-2.6-.4-.8-.1-1.2-.3-1.4-.5,0-.3-.1-.6-.1-.9v-.9c0-1,.2-2.1.6-3.2.4-1.1.6-2.1.5-3.1,0-.3-.1-.5-.4-.6-.2-.1-.4-.3-.4-.5s0-.3.1-.4c-.5-.9-.9-1.4-1.4-1.4-.4,0-.8,0-1.1-.4,0,0-.1-.2-.1-.3ZM123.6,72.6c0,.5.3.8.8,1,.5.2,1,.3,1.4.3h1.7c1,0,2,0,3,.1.9,0,1.9.3,2.9.6.3,0,.5.2.8.2.2,0,.5,0,.8,0s.6,0,.7-.1c0-1.6,0-3-.2-4.2-.1-1.2-.4-2.3-.8-3.3-.4-1-.9-2-1.6-2.9-.7-.9-1.5-2-2.6-3.3,0,0-.3.2-.6.7-.3.5-.7,1-1,1.6-.3.6-.7,1.2-1,1.9-.3.6-.6,1-.8,1.2h-.1c0,.1.1,0,.1,0-.2.4-.4.8-.5,1.2-.1.4-.4.7-.8.9,0,.6-.3,1.1-.9,1.6l-1,1.6h0s0,.2-.1.4c0,.1-.1.3-.1.5ZM124.1,71.1v-.4c-.1,0-.2.2-.2.2,0,0,0,.1,0,.2h.3ZM124.4,70.6v-.4l-.3.4h.3ZM124.4,70h.3v-.3l-.3.3ZM129.7,81.8l.3-.3h-.4c0,0-.2,0-.3.1,0,0,.2,0,.2,0,0,0,.1,0,.2,0ZM133.5,81.5c0,0,.2,0,.3.1,0,0,.2.1.3.1.3,0,.5,0,.7-.3-.3-.3-.5-.4-.7-.4s-.4.1-.6.4ZM135.1,54.7v-.3c-.1,0-.1.1-.1.1h.1ZM137.1,81v.3h.1c0-.1-.1-.3-.1-.3ZM142.7,72.7c0,.7,0,1.1.1,1.4,0,.3.3.8.6,1.4l-.7-2.9h.1c-.2-.4-.6-1.3-1.1-2.6-.6-1.2-.9-2.1-.9-2.6s0-.3.1-.4c-.7-.8-1.1-1.6-1.4-2.6-.3-.9-.8-1.7-1.6-2.1.2-.6,0-1-.3-1.4h-.1c0,.4.2,1.1.6,2.2.4,1.1.9,2.3,1.4,3.6s1.1,2.5,1.7,3.6,1,1.9,1.4,2.3Z" style="fill: #a93c23;"/>
  <path d="M127.8,40.9c-.9-.5-1.4-1-1.6-1.7-.2-.7-.2-1.4-.1-2.1.8.2,1.4.5,2,1,.6.5,1.2.7,2,.7s.8,0,1-.1c-.7-.3-1.2-.6-1.6-1-.4-.4-.9-.8-1.4-1.1,0-.5.1-.7.4-.6.2,0,.5,0,.6-.2,0,0,0-.2.3-.4.2,0,.3-.2.3-.3s0-.2.1-.3c0-.3.2-.5.6-.6,0,0,.2-.2.3-.3,0,0,.2-.2.4-.4,0-.3.2-.4.4-.4l.6.3c.9.5,1.4.8,1.6,1.1.2.2.8.5,1.6.6.2,0,.3,0,.3-.2s0-.4.1-.6c.4,0,.7,0,1.1,0,.3,0,.7,0,1.1,0h3.1c1,0,2.1,0,3.3.1,1.1,0,2.2.2,3.1.3.9,0,1.6.2,1.9.4.3-.3.6-.4.9-.5.3,0,.5,0,.7,0,.6,0,.9,0,1.1-.1.1,0,.2-.2.2-.3s0-.2.2-.3c.1,0,.5-.1,1.1-.1s.4,0,.5,0c.1,0,.3,0,.5,0h.4c.2,0,.4,0,.7,0,.3,0,.5,0,.7,0,.5,0,1,0,1.5,0,.5,0,1.1.1,1.6.2h1.1c0-.6.3-.9.6-1,.3,0,.7-.2,1.1-.3,1.2-.3,1.9-1,1.9-2.1s.1-.3.4-.1c.4.2.5.4.4.7,0,.3,0,.5.4.7h.9c.9,0,1.4-.5,1.4-1.6v-3c0,0,0-.1-.2-.1s-.2,0-.2-.3c.2,0,.3,0,.4,0s.2,0,.4,0c.8,0,1.3.5,1.6,1.4,0,.4.2.7.4,1,.2.3.2.6.1,1-.2,1,0,1.7.6,2.1.4,0,.7.2,1.1.2.3,0,.7,0,1.2,0h1.9c.8,0,1.3,0,1.7.1h.3c-.4,0-.7,0-1,.1.2,0,.3-.1.4,0,0,0,.2,0,.4,0h.6v.7c.3,0,.6-.1.9-.1h.9c.5,0,1,0,1.5,0,.5,0,1,0,1.5,0,1.1,0,2,0,2.7,0,.7,0,1.3-.1,1.8-.2.5,0,1.1-.2,1.8-.2.7,0,1.6,0,2.7,0h1.4c.2,0,.3,0,.4-.1,0,0,0-.3.3-.6.2-.3.3-.6.4-.8l.4.9c.2,0,.3,0,.4,0,0,0,.2,0,.4,0,.7,0,1.2-.4,1.6-1.3,0,.5.4.7,1.1.7-.3.3-.6.5-.9.6.2,0,.3,0,.4.1.3,0,.6,0,1.1-.2.4-.1.8-.3,1.2-.4h1.7c.5-.5,1.1-.9,1.8-1.3.7-.4,1.4-.8,1.9-1.1,0,0,.1.2.1.6,0,0-.1-.2-.1-.2s0-.1-.1-.2c-.6.4-1.1.7-1.7,1.1-.6.3-.9.7-1,1.2,0,0,.1.2.4.4.7-.4,1-.9,1-1.6s0-.3.3-.1c.4.2.5.4.4.7,0,.3,0,.5.6.7.7,0,1.2,0,1.6-.2.4-.1.6-.6.7-1.4,0-.4,0-.7,0-1,0-.3-.1-.6-.1-1v-1c0,0,0-.1,0-.1s-.2,0-.2-.3h0c0-.1.4-.1.4-.1.9,0,1.5.4,1.9,1.3.5.7.6,1.4.4,2.1-.2.9,0,1.6.6,2.1.4,0,.9.1,1.7.1h1.4c.5,0,.9,0,1.4-.1.2,0,.4,0,.6,0,.2,0,.4,0,.6,0h.3c0,.1-.9.1-.9.1h1.1v.6h2c.5,0,.9,0,1.4,0,.5,0,.9,0,1.4,0,1.1,0,2,0,2.7,0,.7,0,1.3-.1,1.8-.2.5,0,1.1-.2,1.8-.2.7,0,1.6,0,2.7,0h1.4c0,0,.2,0,.2,0s.1,0,.2,0c0,0,.1-.3.4-.6.2-.3.4-.6.5-.8l.4.9c.2,0,.3-.1.4,0,0,0,.2,0,.4,0,.3,0,.6-.1.9-.4.3-.3.5-.6.6-.9,0,.2.2.4.3.5,0,.1.4.2.9.2,0,.2-.3.4-.7.6,0,0,.2,0,.3.1.3,0,.6,0,1.1-.2.4-.1.9-.3,1.4-.4h1.6c.5-.5,1.1-.9,1.9-1.4.8-.4,1.4-.8,1.9-1.1-.6.4-1.2.8-1.8,1.1-.6.4-1,.8-1.1,1.3,0,.2.2.4.6.6.4.2.8.5,1.1.6,0,0,.2,0,.2,0,0,0,.2,0,.4,0,.5,0,.8.2.9.4,0,.1.2.6.4,1.4.9.2,1.7.3,2.1.3s.8.2,1,.6c.2.4.2.8.1,1.3-.2.8-.6,1.3-1.3,1.6-.4,0-.7.4-.9.9.2.2.4.3.7.2.3,0,.5,0,.7.2.2.2.3.3.4.4,0,0,0,.2,0,.5-.5.2-.9.3-1.4.4-.4,0-.9.2-1.4.4-.2,0-.2.2,0,.3.1,0,.2.2.2.4.6,1.2.3,2.2-.7,2.9-.5.4-1,.6-1.7.6s-.8,0-1-.1c0,0,0,0-.3.1v1.4c0,.4.1.6.4.8.2.1.5.3.8.4.3.1.6.3.9.6.3.2.5.6.6,1.1-.2-.2-.4-.4-.6-.6-.2-.2-.5-.4-.6-.4-.5,0-1,0-1.6-.3,0,0-.2,0-.3.1-.3.3-.7.4-1.3.4s-.5,0-.8,0c-.2,0-.5,0-.9,0s-.7,0-.9.1c-.5.2-.5.5-.2,1,.3.5.4.9.2,1.3,0-.2-.2-.6-.4-1.1,0-.2-.2-.4-.3-.6-.2,0-.5-.1-.9-.1s-.6,0-.7.1c0,0-.2.2-.2.4,0,.1-.1.3-.3.4-.1.1-.5.3-.9.4,0,.4,0,.7,0,.9,0,.2.2.5.3.8-.3-.5-.7-.8-1.3-1-.6-.2-.9-.4-1-.6.3,0,.4,0,.5,0s.1,0,.2,0c.2-.2.3-.3.2-.4,0,0,0-.2,0-.3h-.7c-.4,0-.9.2-1.4.3-.6,0-.9.2-.9.4l-2.3-1.9c-.4,0-.6,0-.6-.3.2,0,.4-.1.7-.1h.6c-.3,0-.5-.3-.5-.5,0-.2-.2-.4-.4-.6-.7-.3-1.5-.4-2.6-.4h-9.7c-.4,0-.8,0-1.1,0-.4,0-.8.2-1.1.4-.2.4-.3.7-.3,1.1v10.6c0,.2,0,.4,0,.6,0,.2,0,.5,0,.6.5,1,.6,1.9.3,2.9-.3,1-.6,1.9-.9,2.9,0,.4-.2.8-.3,1.2,0,.4-.2.9-.3,1.4,0,.7-.2,2.2-.2,4.5,0,2.3-.1,4.8-.2,7.5,0,2.7-.2,5.2-.2,7.5,0,2.3-.2,3.8-.4,4.5,0,.7-.2,1.7-.4,3.2-.1,1.5-.3,3-.4,4.7,0,1.7-.2,3.2-.4,4.7-.1,1.5-.4,2.5-.6,3.1,0,0,0-.2,0-1,0-.8,0-1.6-.1-2.5,0-.9,0-1.7-.1-2.5,0-.8,0-1.1,0-1,0,1-.2,2-.5,3-.3.9-.7,1.9-1.1,3-.4,1.1-1,1.7-2,1.6-.2,0-.3,0-.4-.1,0-.2,0-.4.1-.6.2-.2.2-.4,0-.6,0-.2-.4-.4-.9-.6l-1.7-.7h-.3c-.2-.1-.3,0-.4,0,0,0-.2.2-.4.3-.2.2-.3.4-.4.6,0,.2-.3.4-.8.5-1-.3-1.6-1-1.7-2.3,0-.7-.2-1.3-.2-1.8,0-.5,0-1.1,0-1.6-.4.5-.8.8-1.1,1-.4.2-.7.4-1,.7-.3.3-.5.6-.6,1.1-.1.4-.2,1.1,0,2.1-.5-1-.5-1.8-.1-2.4.4-.5.3-1.1-.3-1.6s-.8-.7-1.4-.9c-.5-.2-.8-.2-.9,0,0,.2-.2.4-.3.6,0,.2-.2.5-.4.9,0,0-.1.2-.1.3,0,.2-.1.4-.1.7s0,.5-.1.7c0-.4,0-.9.3-1.4,0-.2,0-.3.1-.3.8-3.9,1.2-7.6,1.2-11.1,0-3.5,0-6.7,0-9.8.2,0,.5-.3,1.1-.5.5-.2.9-.4,1.2-.4,0,.2.2.6.7,1.1.5.6.9.8,1.3.7,0-.8,0-1.6-.1-2.6,0-.9,0-1.6.1-2-.4.9-.7,1.3-1,1.3-.8,0-1.5.1-2.1.4-.6.2-1.1.3-1.5.2.7-.2,1-.6,1.1-1.3,0-.7,0-1.2,0-1.7.4-.2.8-.3,1.3-.4.5,0,.6-.2.4-.5-.3-.7-.7-1-1.1-1s-.6-.1-.4-.4c.4-.7.8-1,1.1-1-.3-.8-.6-1.5-.9-2.4-.3-.8-.3-1.7.2-2.8.8-2,1.1-3.8,1.1-5.3,0-2.3.3-4.6.9-7.1.6-2.4,1-4.9,1.4-7.3h-.7c-.7.3-.9.5-.8.7.1.2-.3.4-1.4.6,0,.4,0,.7,0,.9,0,.2.1.5.2.8-.2-.5-.6-.8-1.1-.9-.6-.1-1-.3-1.1-.5.5,0,.8-.1.9-.1,0-.2.1-.5.1-.9h-.7c-.5,0-1,.2-1.5.3-.5,0-.8.2-.9.4l-2.3-1.7c0,0,0-.1-.3-.1s-.3,0-.3-.3c.3,0,.5-.1.8-.1h.5c0,0-.1,0-.1,0s0,0-.1,0c-.8-.2-1.5-.3-2.3-.4-.8,0-1.5-.2-2.3-.3-.2,0-.4,0-.5,0-.1,0-.3,0-.5,0-.2-.3-.4-.4-.7-.4-.3,0-.6,0-.9-.2h-.3c.2.1.3,0,.3,0l-.3.7c-.6,0-1.2-.2-1.9-.4-.7-.2-1.3-.4-2-.6h-1.6c-.4,0-.7,0-1.1,0-.3,0-.7.2-1.2.4-.2.5-.3.9-.3,1.1v10.6c.1.2.1.4,0,.6,0,.2,0,.5,0,.6.5,1,.6,1.9.3,2.9-.3,1-.6,1.9-.9,2.9-.2.5-.3.9-.4,1.3,0,.4-.1.8-.1,1.3s0,2.2,0,4.5c0,2.3-.1,4.8-.2,7.5,0,2.7-.2,5.2-.4,7.5-.1,2.3-.3,3.8-.5,4.5-.2.7-.3,1.7-.4,3.2,0,1.5-.2,3-.3,4.7,0,1.7-.2,3.2-.4,4.7-.1,1.5-.4,2.5-.6,3.1,0,0,0-.2,0-1,0-.8,0-1.6-.1-2.5,0-.9,0-1.7,0-2.5s0-1.1,0-1c0,.5,0,1.1-.2,2-.1.9-.4,1.7-.7,2.6-.3.9-.7,1.6-1.2,2.2-.5.6-1,.9-1.6.9l-.3-.3c-.2-.2-.2-.4,0-.5.2-.1.2-.4,0-.6,0,0-.2-.3-.7-.6l-1.7-.7c0,0-.2-.1-.4-.1s-.3.1-.6.4c-.2.2-.3.4-.4.6,0,.2-.3.4-.8.5-1-.3-1.6-1-1.9-2.3-.2-.7-.3-1.3-.2-1.8,0-.5.1-1.1.2-1.6-.4.5-.8.8-1.1,1-.4.2-.7.4-1.1.7-.3.3-.6.6-.7,1.1-.1.4-.1,1.1,0,2.1-.3-.6-.4-1-.4-1.4,0-.4,0-.7.1-1,0-.3,0-.5,0-.8s-.1-.5-.4-.8-.7-.5-1.3-.8c-.6-.2-.9-.3-.9,0,0,.2-.2.4-.4.6-.1.2-.3.5-.5.9,0,0,0,.2-.1.3,0,.2-.1.4-.1.7s0,.5-.1.7c0-.4,0-.9.3-1.4,0,0,.1-.2.1-.3.9-3.9,1.3-7.6,1.3-11.1v-9.8c.2,0,.5-.3,1.1-.5.5-.2.9-.3,1.2-.2,0,0,.2.5.7,1.1.5.6.9.8,1.1.6,0-.8,0-1.6,0-2.6,0-.9,0-1.6.1-2-.3.9-.7,1.3-1.1,1.4-.5.2-1,.3-1.6.4-.6,0-1,0-1.4,0h-.4c.7-.2,1-.6,1.1-1.3,0-.7,0-1.2,0-1.7.3-.2.7-.3,1.1-.4.5,0,.6-.2.4-.5-.5-.6-.9-.9-1.2-.9-.3,0-.4-.2-.2-.5.4-.7.8-1,1.1-1-.4-.8-.7-1.5-1-2.4-.3-.8-.2-1.7.1-2.8.8-2,1.1-3.8,1.1-5.3,0-3,.4-6.1,1.3-9.1.9-3,1.4-6.2,1.6-9.5,0,0-.2,0-.2,0,0,0-.1,0-.2,0-.4,0-.7-.1-1.1-.1s-.7,0-1.1-.3c-1-.4-2.2-.6-3.4-.6h-.4c-.4,0-.6,0-.7-.3,0-.2-.1-.3-.1-.4s0-.2-.1-.4c-.2,0-.3,0-.4,0,0,0-.2,0-.4,0,.4.8.8,1.4,1.3,2,.5.6.7,1.2.7,2s0,1.3-.3,1.7c0,0-.2.1-.2.1s-.1,0-.2.1c-.3,0-.5-.1-.6-.4,0-.2-.2-.4-.4-.5h-.4c-1-.2-1.9-.4-2.7-.6-.9-.2-1.8-.2-2.7-.1h-1.1c-.2-.3-.4-.4-.7-.4-.3,0-.5,0-.7-.2h-.4c0,.1.4.1.4.1l-.3.6c-1.5-.2-3.1-.6-4.8-1.3-1.7-.7-3.2-1.3-4.5-1.9-.4-.2-.7-.3-1.1-.4-.3,0-.7-.2-1.1-.4-.5-.3-.9-.5-1.3-.7-.4-.2-.6-.6-.7-1.3,0-.4-.2-.7-.6-.9ZM129.8,34.6v.3c.1,0,0-.2,0-.3ZM131.4,42.6c.3.2.6.3,1,.3-.2,0-.4-.1-.5-.1s-.3,0-.5-.1ZM132.1,34.5l.3.3.3-.3c0,0-.2-.1-.3-.1,0,0-.2.1-.3.1ZM151.2,42.9c0,0,0-.2,0-.2,0,0,0-.1,0-.2s0-.2,0-.2c0,0,0-.1,0-.2-.3-.2-.6-.2-.9,0-.4.2-.4.4-.1.5.3.1.5.3.7.4ZM161.6,28.5c.3,0,.4,0,.4.3-.2,0-.3.2-.2.3,0,0,0,.2-.2.3,0-.3,0-.6,0-.9ZM165.6,46.7h.1c0-.1-.1-.3-.1-.3,0,0-.1,0-.1.1,0,.2,0,.2.1.1ZM165.8,28.9c.2.2.2.4,0,.6,0,0-.1-.3-.1-.6h.1ZM169,31.3h.1c.2.3.3.3.3,0s0-.5-.3-.6c0,0-.1.3-.1.6ZM171.5,51c0,.2.2.3.4.4.1,0,.3.3.5.6.3-1,.4-2,.4-2.9,0-.9-.1-1.7-.2-2.4,0,0-.2-.1-.3-.1s-.2,0-.3-.1l-.4.4c-.5.5-.6,1.1-.5,1.9.1.8.3,1.5.5,2.2ZM172.3,32.9c1.1-.2,2.1-.4,2.9-.6h.4-2.1c-.6,0-1,0-1.4.3l.3.3ZM183.9,34.1c0-.3-.3-.4-.6-.4h-.3c-.3-.2-.4,0-.4.3.6,0,1,0,1.3.1ZM185.4,31.5h.4-.4ZM193.1,31.2c-.4,0-.7,0-.9.1-.8.4-1.6.6-2.6.6s-1.8-.2-2.4-.6h-.6,6.4ZM189.4,33.1c-.3,0-.5,0-.7.1.3,0,.5,0,.7-.1ZM200.7,28.1c0,0,.2,0,.3-.1,0,0,.1,0,.1.3,0,0-.1.2-.1.4s0,.3-.3.4c0-.2-.1-.3,0-.4,0,0,0-.2,0-.4ZM204.8,46.3h0c0-.1-.1-.3-.1-.3h0c0,.2-.1.3,0,.4,0,0,.1,0,.2,0ZM208.3,30.9c0,0,0,.1.1.1.2.2.3.1.3-.1s0-.5-.3-.6c0,0-.1.3-.1.6ZM210.7,50.6c0,0,.2.4.7.9.3-1,.4-2,.4-2.8,0-.8,0-1.6,0-2.4,0,0-.2-.1-.3-.1s-.2,0-.3-.1c-.3,0-.4.1-.4.4,0,.8,0,1.5-.2,2.1-.1.7,0,1.3.2,2ZM211.3,32.2c0,0,0,.1,0,.1s0,0,0,.1c.5,0,1-.2,1.5-.2.5,0,1-.2,1.5-.4h.4-2.1c-.7,0-1.1,0-1.4.3ZM213.8,41.6c.2,0,.3,0,.4,0,0,0,.2,0,.4,0s.4,0,.6-.3c-.2,0-.4,0-.6-.1,0,0-.3,0-.7.3ZM217.1,41.6l-.3-.3c0,.2,0,.3.3.3ZM221.7,33.5c0,.3.1.4.4.4.6,0,.9-.2,1-.6-.2-.2-.4-.3-.5-.2-.1,0-.3,0-.5,0-.3,0-.4.1-.4.4ZM224.5,31.1h.3c.2-.1.3,0,.3,0s0,.1-.3.1-.3,0-.3-.1ZM225.9,30.9h6.3c-.4-.1-.6,0-.7,0-.8.4-1.7.6-2.7.6s-1.8-.2-2.4-.6h-.4ZM228.7,32.6c-.3-.2-.6-.2-.9,0,.2,0,.3.1.4,0,0,0,.2,0,.4,0Z" style="fill: #a93c23;"/>
  <path d="M34.7,163c.6-1,.8-2.3.8-3.8s-.2-3.2-.5-4.6c1.1-.2,1.9-1.1,2.3-2.6.4-1.5.7-2.7.7-3.6s0-1.5-.2-2.2c-.1-.7-.1-1.4,0-2.1.2-.1.4-.2.6-.2.2,0,.4-.1.6-.2l.3.8c-.1.2-.2.5-.4.8s-.2.6-.2.8c0,.8.4,1.2,1.2,1.2.6-1.5,1-2.9,1.3-4.1l-.3-.3-1.7.3v-.2c0-.2.2-.4.5-.6.3-.2.6-.4.8-.7l-1.2-.8-.2.3c0,.2.1.7.3,1.3l-.7-.2c0-.2.2-1.7.7-4.5.5-2.8,1.1-5.8,1.7-9.1.7-3.3,1.3-6.4,1.9-9.4.6-2.9,1-4.7,1.1-5.2-.3-.4-.1-.9.6-1.2.7-.4,1-1,.9-1.7,0-.7,0-1.2.2-1.5l.7.2c.2.4.3.7.3.9v.4c0,.1,0,.2.2.4s.5.5,1.1.9c.1-.2.2-.4.3-.6.1-.2.2-.4.2-.6l-.2-.3c.4,0,.7.2.8.5h1.8c-.2-.7-.3-1.2-.3-1.5.6,0,1,.2,1.2.7.3.5.8.7,1.6.7s.5-.2.5-.5c0-1-.5-1.7-1.4-2.1-.9-.4-1.4-.9-1.4-1.4v-.8c.2-.2.5-.3.8-.3s.7.3,1,.9c.3.6.6,1,.8,1.2.3.2.7.6,1,1,.3.4.7.8,1,1,.9.7,1.5,1.4,1.9,2.2.4.8.7,1.6,1.1,2.4.3.8.7,1.7,1,2.5s.8,1.6,1.5,2.2c1.1,1.1,1.8,2.7,2.2,4.6.1.6.2,1.1.4,1.7.2.6.5,1.2,1.1,1.7,1.2,1.2,1.9,2.6,2.1,4.2.2,1.6.7,3,1.7,4.2.3.3.8,1.1,1.3,2.3.6,1.2.9,1.8,1.2,1.8.3,0,.7-.4,1.2-1.2.4-.8.9-1.7,1.2-2.7.4-1,.7-2,1.1-2.9.3-.9.6-1.6.8-2.1.4-.7,1.2-1.9,2.2-3.8,1-1.9,2-3.8,3.2-5.8,1.1-2,2.1-3.8,3-5.3.9-1.5,1.4-2.4,1.5-2.5.9-.6,1.3-1.5,1.3-3s0-1,0-1.4c0-.4.1-.9.2-1.4l.7-.3c.1-.4.2-1,.3-1.7.1-.7.3-1.4.5-2.2.2-.7.5-1.3.8-1.8.3-.5.8-.7,1.3-.7h1.2c.4,0,.9-.1,1.5-.3.3.2.5.5.4.9,0,.4.2.6.7.6s.8-.4.8-1.2.4-1.2,1.2-1.2.9,0,1.7,0c.8,0,1.7.1,2.7.2.9,0,1.8.1,2.7.2.8.1,1.3.2,1.4.3.7.3,1,1.2,1.1,2.6,0,1.4,0,2.4,0,2.9,0,1.7,0,3.3-.2,5-.1,1.7-.2,3.3-.2,5,0,2.4.2,4.8.7,7.2.5,2.4.7,4.8.7,7.4s.2,2.8.6,4.1c.4,1.3.6,2.7.6,4.1,0,2.3.2,4.6.6,7,.4,2.3.5,4.6.4,7,0,.7,0,1.3-.2,2-.1.7-.2,1.3-.2,2s0,1.8.2,2.8c.2,1,.2,1.9.2,2.8v8.8c-.7.1-1.4.2-2.2.4-.8.2-1.6.4-2.3.8-.7.4-1.4.9-1.9,1.4s-.8,1.3-.8,2.2v.3c-.4.2-.8.3-1,.3l-1.7-2.3-.8.3c0-.2,0-.4,0-.5,0-.1,0-.3,0-.5l-.3.2-.3.7c-.1-.2-.3-.3-.7-.3s-.4.2-.6.5c-.2.3-.4.5-.7.5s-.6,0-.7-.2l-.3-3.3c-.3.2-.5.5-.4.7,0,.3,0,.5-.2.7h-.5c-.6-.9-1.1-1.6-1.6-2.1s-.7-1.4-.6-2.6c0-.6,0-1,.2-1.5.1-.4.2-.9.3-1.5.1-.7,0-1.5-.6-2.6-.5-1-.7-2.1-.7-3.2,0-1.8-.2-3.5-.6-5.3-.4-1.8-.5-3.6-.4-5.5.1-1.2,0-2.2-.6-3.1s-.7-1.7-.6-2.6c0-.4,0-.8.2-1.1.2-.3.2-.5.2-.6,0-.2-.2-.8-.7-1.7-.4-.9-.8-1.4-1-1.7h-.3c-.2,0-.4,0-.4.2,0,.2-.1.3-.2.4,0,1.3-.4,2.7-1.2,4.1-.8,1.4-1.7,2.8-2.7,4.1-1,1.4-2,2.8-3.1,4.1-1.1,1.4-1.9,2.7-2.4,4.1,0,.6-.2.8-.5.8-.9,0-1.4,0-1.7-.2-.1,0-.6.1-1.5.3l-1.5-.5c-.3.1-.5.4-.5.7s-.2.5-.7.4l-2.5-6.6.2-.3h-.3c-.6-.6-1-1.2-1.2-2-.3-.8-.7-1.4-1.2-2-.8-.8-1.6-1.9-2.4-3.3-.8-1.4-1.2-2.7-1.1-3.8,0-.6.1-.9.3-1.2-1.7-2-2.7-4.1-3.2-6.3-.1-.2-.2-.4-.2-.7s-.1-.4-.3-.7c0,.6-.1,1.2-.3,1.8-.1.4-.2,1.3-.3,2.5-.1,1.2-.2,2.5-.4,3.8-.2,1.3-.4,2.5-.7,3.5-.3,1-.6,1.5-.9,1.5h-.2l.8,1c-.1-.1-.2-.2-.2-.2s-.1,0-.2-.2c-.2,0-.4.1-.7.3.2.3.3.7.3,1s.2.6.7.8c-.6-.1-.9,0-1.1.4-.2.4-.3.9-.3,1.4,0,.6-.1,1.1-.2,1.6,0,.5-.2.7-.6.7s-.6,0-.7-.2c.2.3.3.7.3,1.1v1.1c0,2.5-.4,5.1-1.2,7.8-.8,2.7-1.5,5.3-1.9,7.8-.3,0-.6-.3-.8-.8-.2-.6-.5-1.2-.7-1.8-.3-.7-.6-1.3-.8-2-.3-.7-.6-1-1.1-1.2v.2c-.3.3-.7.5-1.2.5-.7,0-1.3-.2-1.8-.7-.6-.5-.9-1-1.2-1.6.1.6.2,1.1.2,1.6s-.2,1-.5,1.6c-.3-.2-.5-.6-.5-1v-1c0-.3-.1-.6-.3-.8-.1-.1-.2-.1-.3,0-.1,0-.3,0-.5,0h-1l-.3.8c0,1.1,0,1.9-.2,2.5-.2-.1-.6-.4-1-.8v-.8c.4-.9.8-1.5,1-1.8l-2.7-1.2c0-1.5.2-3.2.6-4.9.4-1.7.7-3.4.9-5.1-.4.7-.8,1.6-1.1,2.7-.3,1.1-.5,2.3-.7,3.6-.2,1.3-.4,2.6-.6,3.8-.2,1.2-.4,2.2-.6,3-.1.1-.2.2-.2.3s-.1.2-.3.2-.4,0-.5,0c-.1,0-.3,0-.5,0v-.3ZM49.1,108.4c.7,0,1,.4,1,1.2s0,.6-.2.7h-.7l-.7-1.2c.1-.1.2-.2.2-.4s.1-.2.3-.2ZM55.5,148.2c.1-.2.2-.5.2-.7s0-.5.2-.7l-.7-.5-.2.2v1c0,.3.2.6.5.8ZM56,145.7v-.2l-.3-.8c-.2.2-.3.4-.3.5l.2.3.5.2ZM55.6,144.2l.3-.2-.3-.3c-.1,0-.2,0-.2.2.1.1.2.2.2.3ZM56.6,143.1c.1-.2.3-.9.5-2.1.2-1.2.5-2.4.7-3.8.3-1.4.5-2.7.7-4,.2-1.3.2-2.1.2-2.4v-.5c0-.2-.1-.3-.3-.3s-.3.1-.5.3c.1,2.2,0,4.3-.6,6.4-.5,2-.9,4.2-1.1,6.4h.3ZM58.8,129.1l.2-.8-.3-.2c-.2,0-.3.1-.3.3l.5.7ZM62.9,138.4v-.2h-.2l.2.2ZM68.1,141.1c.6.3,1,.5,1.3.5h.3v-.3c0-.4-.2-.8-.5-1-.3-.2-.7-.4-1-.5,0,.1,0,.2,0,.3,0,.1,0,.2,0,.3v.7ZM79.5,132.3h1v-.5c-.2-.2-.3-.5-.3-.7s-.1-.5-.3-.7c.1.3,0,.6,0,.9-.2.3-.2.6-.2.9v.2ZM80.7,130c.3-1.8,1.1-3.2,2.4-4.4,1.3-1.2,2.4-2.4,3.4-3.7-.3-.9-.3-1.5,0-1.9s.6-1,.6-1.7-.2-.8-.5-1.2c-.2.8-.7,1.8-1.4,3.1-.7,1.3-1.5,2.5-2.3,3.8-.8,1.3-1.6,2.4-2.2,3.5-.6,1.1-.9,1.7-.9,2.1s0,.3.2.3.4,0,.6.2ZM92.4,105.6l.3-.5-.3-.3-.2.3.2.5ZM95.1,168.9l.2.3.5-.3-.2-.5-.5.5ZM96.4,172.8l.3.3.2-.3-.3-.8c-.1.1-.2.3-.2.5v.3ZM98.6,170.9l.2,1.2.5-1-.2-.7-.5.5ZM99.4,165.9l.2.2v-.3c-.1,0-.2,0-.2.2ZM108.9,165.3l.2-.5c0-.2,0-.3-.2-.3l-.2.3c0,.2,0,.4.2.5Z" style="fill: #a93c23;"/>
  <path d="M110.5,155.3c0-.3.3-.6,1-.7.7-.2,1.2-.3,1.5-.4-.2-.9-.5-1.6-.9-2.1-.4-.5-.7-1.2-.9-2.1l-.2.2.2-.2c.2.2.4.4.7.6.2.2.4.2.7,0,.2,0,.6-.2,1-.7.4-.4.9-.9,1.4-1.4.5-.5.9-1,1.3-1.7.4-.6.6-1.1.7-1.4.6-2.5,1.5-5.2,3-8,.8-1.5,1.3-3,1.5-4.3.2-1.3.9-2.7,2.2-4.1,3.1-3.5,5.5-7.3,7.1-11.3.6-1.3,1.6-2.5,3.2-3.6,1.6-1.1,3.1-1.7,4.6-1.8.7,0,1.6,0,2.7.2,1.2.1,2.3.3,3.4.7,1.1.3,2.1.8,3.1,1.3.9.6,1.6,1.2,1.9,1.8.3.8.7,1.5,1,2.1.3.6.7,1.3,1.2,2.1.2.6.5,1.6.8,3.1s.8,2.7,1.3,3.6c1.2,2.2,2.2,4.5,2.8,6.9.7,2.4,1.6,4.7,2.8,6.9l1,2c.3.7.5,1.4.5,2.2s.3,2.1.9,3.7c.6,1.6,1.1,2.8,1.6,3.6.3,1,.6,1.8.7,2.4.1.6.2,1.2.3,1.7.1.5.2.8.2.9,0,.9.2,1.7.7,2.5.5.8.7,1.6.7,2.5s-.3,1.4-.9,1.9c-.6.5-1.1,1-1.6,1.6-.2-.2-.4-.5-.6-.8-.2-.3-.4-.5-.7-.5s-.9,0-1.4.2c-.5.1-1,.2-1.6.2s-.9-.2-1.2-.6c-.4-.4-.7-.7-1.1-.9-.1-.3-.2-1-.3-1.9-.1-.9-.3-1.9-.6-2.7-.3-.9-.6-1.7-.9-2.4-.3-.7-.8-1.1-1.3-1.1h-.2c-.9.2-1.7.3-2.3.3s-1.4,0-2.3.2c-2.5.2-5,.6-7.4,1-2.4.4-4.8.8-7.4,1-1.8.1-2.9,1.1-3.5,3-.6,1.9-1.4,3.4-2.6,4.5-1.2,1.1-2.2,2.5-3.1,4.1-.6.9-1.2,1.3-2,1.3s-1.2,0-2.2-.2c-1.1-.1-2.2-.2-3.3-.4-1.2-.2-2.2-.3-3.1-.5-.9-.2-1.4-.4-1.7-.6-.1-.3-.2-.7-.2-1.1v-1.1c0-1.2.2-2.5.7-3.7.5-1.3.7-2.5.6-3.6,0-.3-.1-.6-.4-.7-.3-.2-.4-.4-.4-.6s0-.4.2-.5c-.6-1.1-1.1-1.6-1.6-1.6-.5,0-.9,0-1.2-.4-.1-.1-.2-.2-.2-.3ZM138.1,144.4c0,.6.3.9.9,1.2.6.2,1.1.3,1.6.3h2c1.2,0,2.4,0,3.5.2,1.1.1,2.2.3,3.3.7.3.1.6.2.9.2.3,0,.6,0,.9,0s.7,0,.8-.2c0-1.9,0-3.5-.2-4.9-.2-1.4-.5-2.7-.9-3.8-.4-1.2-1.1-2.3-1.8-3.4-.8-1.1-1.8-2.4-3-3.8-.1,0-.4.3-.7.8-.4.6-.8,1.2-1.2,1.9-.4.7-.8,1.4-1.2,2.2-.4.7-.7,1.2-.9,1.4h-.2v.2l.2-.2c-.2.4-.4.9-.6,1.4-.2.5-.5.9-.9,1.1,0,.7-.3,1.3-1,1.8l-1.2,1.8v-.2c0,.2,0,.4-.2.6-.1.2-.2.4-.2.6ZM138.7,142.7l-.2-.5c0,.1,0,.2,0,.2,0,0,0,.1,0,.2h.3ZM139.1,142.1v-.5l-.3.5h.3ZM139.1,141.4h.3v-.3l-.3.3ZM145.2,155.2l.3-.3h-.5c-.1,0-.2,0-.3.2.1,0,.2,0,.2,0,0,0,.1,0,.2,0ZM149.7,154.8c.1,0,.2,0,.3.2.1.1.2.2.3.2.3,0,.6-.1.8-.3-.3-.3-.6-.5-.8-.5s-.4.2-.7.5ZM151.5,123.6l-.2-.3v.2l.2.2ZM153.8,154.2v.3l.2-.2-.2-.2ZM160.3,144.5c0,.8,0,1.3.2,1.7.1.3.3.9.7,1.7l-.8-3.3.2.2c-.2-.7-.7-1.7-1.3-3.2-.7-1.4-1-2.4-1-3s0-.4.2-.5c-.8-.9-1.3-1.9-1.7-3-.3-1.1-.9-1.9-1.8-2.5.2-.7.1-1.2-.3-1.7l-.2.2c0,.3.2,1.1.7,2.4.4,1.3,1,2.7,1.7,4.1s1.3,2.9,2,4.2,1.2,2.2,1.7,2.7Z" style="fill: #a93c23;"/>
  <path d="M162.8,168.6c0-.6.2-1.2.6-2.1.4-.8.6-1.6.6-2.2.7-1.4,1.5-3,2.5-4.8,1-1.8,2.1-3.5,3.2-5.3,1.2-1.8,2.3-3.5,3.6-5.1,1.2-1.6,2.4-3,3.5-4.1.3-.3.6-.7.9-1,.3-.3.4-.8.4-1.3.2,0,.4-.3.7-1,.2-.2.4-.5.7-.8,0-1.3-.6-2.8-1.8-4.6-1.2-1.7-2.6-3.5-4.1-5.3-1.5-1.8-2.8-3.6-4.1-5.2-1.2-1.7-1.8-3.1-1.8-4.3s-.5-2.4-1.5-3.3l-.2-.7c.3-.3.9-.6,1.7-.9.8-.3,1.6-.6,2.4-.9.8-.3,1.6-.7,2.3-1,.7-.3,1.2-.7,1.6-1h-.3.3l-2.5.5c.2-.2.7-.4,1.3-.7.7-.2,1.3-.4,2-.7v-.3l.3.2c1.3-.6,2-1,2-1.3.2-.2.6-.3,1-.3.7,0,1.4.3,2.2,1,.8.7,1.5,1.4,2.2,2.3.7.9,1.4,1.7,2.1,2.6.7.8,1.2,1.5,1.7,1.9l-.2.7-.7-.3.7.5c0,.1.3.6.9,1.3.6.8,1.3,1.6,2.1,2.6.8.9,1.5,1.9,2.2,2.7.7.9,1,1.4,1.2,1.7h.2c.6,0,1.2-.4,1.8-1.1.7-.7,1.2-1.2,1.5-1.6-.3,0-.4,0,0-.2.3-.1.5-.3.7-.7.6-1,1.2-2,1.8-2.9.7-.9,1.4-1.8,2.3-2.6.4-.3,1-.9,1.7-1.6.7-.7,1.5-1.4,2.2-2.2.8-.7,1.5-1.4,2.3-1.9.8-.6,1.4-.8,1.8-.8s.7.2.7.6c0,.4.5.6,1.2.6s.6,0,.8.2c0,1-.7,2.5-2.1,4.4-1.4,1.9-3,3.9-4.7,6-1.8,2-3.4,4-5,6-1.6,1.9-2.5,3.5-2.8,4.6.7,1.1,1.7,2.9,3,5.4s2.6,5.1,3.8,7.8c1.2,2.7,2.3,5.3,3.2,7.9.9,2.5,1.4,4.5,1.4,5.8v2.5l-.3.7c-.2.1-.6.2-1,.2-.9,0-1.4.2-1.7.7-.2.4-.5,1.1-.8,1.8-.2.2-.6.3-1,.3s-.6.2-.5.7c.1.2.2.3.4.3s.3.1.4.3c-.3.6-.7.8-1.2.7-1.2,0-2.7,0-4.5-.2-1.8-.2-3.3-.4-4.5-.7-.6-1.2-1.2-2.6-2.1-4.1s-1.8-2.6-2.9-3.2c-.2-.7-.6-1.6-1.2-2.7-.6-1.2-1.1-2.3-1.7-3.5-.6-1.2-1.1-2.3-1.5-3.5-.4-1.2-.7-2.1-.7-2.7l-.3-.5c-.3,0-.7.2-1.2.7-.4.4-.9.9-1.3,1.5-.4.6-.9,1.1-1.3,1.6-.4.5-.8.9-1.2,1.2h.2l-1.2.7c0,1.2-.4,2.2-1.1,3.1-.7.8-1,1.9-.9,3.1,0,.6,0,1,0,1.4,0,.4.4.7.9.9-.4.9-1,2.1-1.7,3.6-.7,1.6-1.4,2.5-2.3,2.8-.2.1-.5.3-.9.5-.4.2-.6.5-.6.8v.2l.2.2c.1,0,.2,0,.2-.2,0-.1.2-.2.4-.2s.2,0,.3.2c-.2.3-.5.6-.8.9-.3.3-.6.6-.8.9-.6,0-.8-.2-.8-.7l-.3-.2c-.2,0-.4,0-.5.2-.1.2-.3.3-.5.4-.6-.3-1.3-.8-2.2-1.5-.9-.7-1.6-1-2.2-1-.2-.2-.5-.4-.8-.6-.3-.2-.5-.4-.5-.6ZM164.1,169.8v.5c0,.1,0,.2-.2.3,0-.1,0-.2,0-.2s0,0,0-.2.1-.3.3-.5ZM164.8,110.2c0-.1,0-.2,0-.2s0,0,0,.2l-.2.2-.2-.3.2.2ZM173.9,113.7h3.8-3.8ZM184.3,117.7l.5.3c-.4-.4-.7-.7-.8-.7l.3.3ZM184,154.2l.2-.2v.2-.2l-.2.2ZM184.8,118c-.1.3,0,.7.5,1.2v-.3c0-.2-.2-.5-.5-.8ZM194.5,126.5h-.3v.2-.2l.3-.3v.3ZM194.8,125.8v.3h-.2l.2-.3ZM195.3,125.3c0,.2,0,.3-.2.3.1-.1.2-.2.2-.3ZM199.1,149l.8,1.2c.2-.2.3-.4.3-.5l-.8-1.3h-.3v.7ZM200.1,149.5l.2.2-.2-.2ZM200.6,152.2c.2.4.4.9.6,1.2.2.4.4.8.6,1.2l.7.2.5.8-.2.3v.2l.3-.2c0-.1-.1-.4-.3-.7-.2-.4-.4-.8-.7-1.3-.2-.5-.5-.9-.7-1.3-.3-.4-.5-.6-.6-.6l-.2.2ZM203.8,158.7v-.3c0-.4-.3-.8-.8-1,.1.2.2.5.2.7,0,.3.2.5.6.6ZM203.4,152.8c0,.9.2,1.7.5,2.4.3.7.6,1.5.7,2.4l.3.3v-.2l-.3-.8.2.2-.2-.2c.4-.2.7-.5.7-.8s-.2-.9-.7-1.7c-.5-.8-.9-1.3-1.1-1.7v-.5l-.2-.2.2.7Z" style="fill: #a93c23;"/>
  <g style="clip-path: url(#clippath);">
    <g>
      <path d="M89.6,84.8c.9,0,1.5-.1,2.2.5.3-1-.6-.8-1.4-1-.4,0-.7.2-.6-.5,1.5.3,2.6-.6,4-.5.8,0,1.2.6,1.9.5.7,0,2.5-.9,3.2-1,.6,0,1.3,0,1.9,0,.3,0,.9.2.8-.2-1.1,0-2.2,0-3.2,0-.9,0-2.1.6-2.7.7-.6,0-1.1-.4-1.7-.4-.4,0-3.7.3-4,.4-.2,0-.6,1.1-.5,1.4Z" style="fill: #939e31;"/>
      <path d="M74.8,143.2c.4,0,.5.2.4-.3-.2-1-.2-1.9-.2-2.9,0-.5.4-.8.4-.9s-.4-.4-.3-.7c0-.5.5-1.5.9-1.8.2-1.3-.3-2,.3-3.9.2-.6,1.4-1.9.7-2.3,0,.6-.5,1-.7,1.4-.3,1.4-1.5,5-1.5,6.1v5.4Z" style="fill: #939e31;"/>
      <path d="M90.4,90.3c.1-.4-.4-.6-.4-.9,0-.3.8-1.1.4-1.5,0,0-.7.2-.7.2-.2.3,0,2.1.7,2.1Z" style="fill: #939e31;"/>
      <path d="M103,87.1c-.3-.1-1.3-.8-1.3-.8-.8,0,.3.9.4.9.3,0,1.1.5,1-.1Z" style="fill: #939e31;"/>
      <path d="M77.2,135.9l-.5-.6c0,1.2-.2.8-.7,1.2-.1.7-.4,1.2-.5,1.9l1.7-2.5Z" style="fill: #939e31;"/>
      <path d="M210.2,104.8c0-.3.9-1,.2-1.2,0,.4-.5.7-.4,1,.2,1.3,1,.5,1.5.6.3,0,0,.4.1.5.1.2.3.4.4.7,1.6-1.1-.7-1.8-1.8-1.7Z" style="fill: #939e31;"/>
      <path d="M189,96.1c.1-.6-.3-.3-.6-.3-1.7-.2-3.3-.8-5-1.1-.5-.3-.4-1-.5-1.1-.7-.8-.4,1.4.6,1.6.9.2.3-.4,1.3.5.6,0,1.5,0,1.9,0,.7.2,1.9,1.7,2.2.3Z" style="fill: #939e31;"/>
      <path d="M99.1,88.2c.5,0,.6.4,1.1.5.8.2,1.8-.3,2.4.5l.4-.7-4.1-.5c0,0,0,1.6,0,2,0,.2-.2.1-.3.1,0,.3,0,.6,0,1,1-.2.2-2.6.5-2.9Z" style="fill: #939e31;"/>
      <path d="M173.4,87.7c-.2-.5.6-2.3.5-2.4-.6-.6-.7,1.4-1.1,1.4-.7-.5-1.6-1.8-1.6-2.6-.6,0-.5,0-.5.5.2.3,2.1,3.6,2.7,3.1Z" style="fill: #939e31;"/>
      <path d="M113.6,82.2c-.5-.5-2.2-2.5-2-3.1,0-.3.6,0,.5-.4-2,0-.2,2.3.4,3.1,1.5,1.8,3.1,3.1,4.3,5.3.4.7,0,1.4,1.4,1.2,0-.4-.5-.3-.7-.6-1.2-1.6-2.3-3.7-3.4-5.3,0,0-.3,0-.4,0Z" style="fill: #939e31;"/>
      <path d="M137.1,96.5v-3.1c-.4,0-.2.5-.2.8,0,.5,0,1.2,0,1.6,0,.2-.2.1-.3.1,0,.4-.2.6.5.5Z" style="fill: #939e31;"/>
      <path d="M217.5,117.7c.4-1.5.2-3.2,0-4.8-1.5-.4-.7-.5-1.2-1.3-.6-.8-1.6-1.9-1.2-3.1.5-1.4,3.2,1.5,3.8,2,.4.4,1,1.6,1.1,1.7.2.1.6,0,.5-.4-.1-.3-.9-.7-.7-1.3l.7.5c.2-.2-.9-1.6-1.2-1.9,0,.6-.1.6-.2,0l-.3-.2c0,0,.2,0,.3,0l-1.1-1.2c-.2,0-.2.4-.1.5-.2-.2-.4-.3-.6-.7-.2-.4-.3-1.2-.4-1.2-.2-.2-1.3.3-1.8.2-.6,0-1.3-.7-1.7-.7-.5,0-.9,1.3-1.6,1.2,0-.3,0-1,0-1.2,0,0-.4-.3-.6-.2-.5.1-.2,1.6-1.1,1.4.4-.8-.4-1.9-.4-2.3,0-.4,1.9-2,0-2.3-.3,0-2.2.3-2.5.4-.9.3-2.9,1.6-3.8,1.8-.4,0-4.3.5-4.6.5-.8,0-1.2-.5-1.8-.7-.9,0-3.5-.2-4.2-.7-.3-.2-.5-1.1-.4-1.2.3-.3,1.5.7,1.8.6.2,0,.6-.5,1-.6.6-.1,1.2,0,1.8-.2.5-.1,1.4-.9,1.9-1,.6-.1,2.6.5,3.2.1,0,0,.4-.9.9-1.4.7-.6,1.6-.8,2.4-1.2.4-.2,4.5-2.6,2.7-3-.5,0-3.5,1.5-4.3,1.7-2.2.7-4.6.4-6.4,1.4-1.3,0-2.2,1.2-3.5.6-.2,0-2.6-2-2.7-2.1-.7-.8-.1-1.8-1.5-1.8-.6,2.7-1.3,1.2-2.8.8-.8-.3-.9.3-1.8-.5-.5,0-1.2,0-1.6-.2-1-.6-1-2.3-2.2-2.9-.8-.1-.8,1.1-.8,1.2-.1.1-1-.4-1.3-.5-.7-.1-1.6,0-2.3-.1.7.9,1.5.2,2.4.5.6.2.8.9,1.4.9,0-.6.2-1.5,1-1.4-1.3,1.3-.5,2,0,3.3l-2.4-2.2c-4.1.3-5.1-5.1-4.9-8.2-.6.2,0,1.2-.4,1.7-.8,1.2-3.1-1.8-3.1-3.1-1.8-2.6-2.9-4.5-4.4-7.2-.4-.7-1.5-1.7-1.7-2.2-.2-.4.3-.5.5-.4.1,0,1.4,2.2,1.6,2.6.3.6.7,1.3.8,1.9.8-.4-.1-1-.2-1-.9-1.9-1.6-2.6-2.7-4.2-.2-.4-.3-.9-.3-1,0,0-.6-.1-.5.3,0,.1,1,1.5.1.8l-2.2-4.8c-.1,0-1.3,1-1.3,1.1,0,.1.4.4.4.8.4,2.3.8,4.6,1.1,6.8.2,1.5,0,2.8.2,4.1,0,.7.4,1,.6,1.5,0,.2.3.8-.1.7-1.1-1.7-.5-3.4-.8-5.1-.2-1.9-.8-4.1-1.2-6-.3-2-.4-4-1-5.9.2-1.1.3,1,.7.8.4-1.1-.4-1.4-.5-1.6,0-.2,0-.7,0-.8-.4-.5-.5.7-.7.5-.2-1.8-1.5-3.5-1.5-5.4,0-.7.4-1.5.3-2.3-1.1-.2,0,1-.4,1.4-.9-.9.3-2-1.3-1.7.2,1.8.5,3.6.7,5.5,0-.1-.6-.7-.5-1.2-.8.4.2,1.6.2,2,.6,4,.9,8.1,1.5,12.1.2,1.7-.2,4,0,5.7,0,.7.8,1,.3,1.8,1,.1.3-1.7.2-2.3-.1-3.6-.2-7.2-.5-10.8,1,4.5.3,9.1,1,13.4.1.7.8,1.2.7,2-.8,0-.6-1.3-1.1-1.8-.9-1.1-2.8-2.3-3.6-3.3-.3-.4-.9-1.9-1-2-.2-.1-1.2-.1-1.7-.4-.8-.3-1.2-1-1.8-1.3-.7-.4-3.7-2.2-3-.3-.1.2-.9-.6-.2-1.1,1.1-.7,4.5,1.9,5.5,2.5.8,0,.1-.2,0-.4-.8-.9-5.9-4.4-5.9-1.6,0,1.5,3,3,4.1,4.3.5.6,1.1,1.5,1.7,2.2.3.3.2,1.2.8.7-1.1-2.5-3.4-4.1-5.4-6,0-.2.3-.2.4-.1.1,0,2.2,1.8,2.5,2,1,1,2,2.8,3,3.8.8.9,2.5,1.6,2.9,2.9.3.9.3,2.1.2,3.1,0,.6-.6,1.5-.5,1.9.2.7,1.3.2,1.7.4.2.1.2,1.5.4,1.9.2.4.6.7.8,1.2.2.5,0,1,.2,1.4.2.6,2.3,1.9,2.3,2-.9.7-2.3,3.7-3.5,3.7-1,0,0-1.3-.2-1.8,0-.3-.6-.4-.8-.6-.1-.2,0-.4-.1-.5-.6-.9-.1-.7-.3-1.5-.2-1.2-2.6-2.5-3.2-3.6l2.7-3.9c-1.6.4-1.8,2.2-3.3,2.9-.9-.5-.5-1.3-.7-2-.2-.7-.5-1.5-.6-2.2-.1-.6.3-2-.5-1.8.2,1-.4,1.7-.5,2.5-.1,1.2.4,2.5.3,3.8,0,.6-.4,1.3-.4,1.7,0,.6,1.2,2.1.6,3.2l-1.7-1.1,1.5,2c-.9.3-2-.7-2.7-.6-.4,0-1.2,1-1.7,1.3.3-.6.4-1.3,1.4-1.6.9-.3,1.4.5,2.3.4-.5-.4-1-1.8-1.5-1.3l.2.6c-2.8-.2-2.8,2.5-5.9,1.8-.8-.2-2.1-1.1-2.5-1.8-.3,0,0,1,0,1.2-.5-.7-1.2-1.8-1.4-2.6-1.2-.3-1.2,1-1.6,1.2-1,.4-1.9-.7-2-1.6,0-.6.3-.7.4-.8,0-.4-.2-1.9-.1-2.3,0-.6,1.1-1.8.6-3l-.5,2.1c0-.8,0-1.7,0-2.5,0-.7-.5-1.8-.8-.6-.6,1.8-.6,4.6-1.5,6.4,0,.1-1.1,1.3-1.2,1.3-.8,0-1.6-1.2-2.2-1.7-2-1.6-3.2-3-5-4.5-2.1-1.8-2.1-1.9,0-.2.2-.7-.4-.7-.6-1-.2-.3-.4-1-.5-1.1-.2-.2-1.3-.2-1.7-.4-.2,0-3.8-2.9-4-3.1-.6-.7-1-2.7-.9-.4l-5.5-5.8c-.3-.3-1,0-1,.2,0,.1,1.7,1.7,2,2.2.2.2.2.5.2.6,1.9,2.1,3.2,4.8,4.9,6.6.8.8,3.2,1.1,3,2.7l-1.1-1.2c-.3,2.7,4.4,2.8,3.4,5.6,0,.2-1.2.8-1.4.8-.4,0-3-1.3-3.2-1.1-.5.5,1.6,1,1.7,1.2-.3,0-.7,0-1.1,0-.5-.1-.9-.8-1.2-.2-.2.3,0,.7-.2.9,0,0-1.2.6-1.7,1,.6-.9.7-.8,1.2-1.3.4-.4,1.1-2.4.3-1.5,0,0-.1.6-.4.9-1.1,1.3-2.5,2.6-3.5,3.9,0,.2.3.1.5.1-.1.2-1.4,1.5-1.5,1.4,0,0,0-.3-.2-.5-.4-.2-1.4,0-1.7-.2-.5-.4-.4-1.3-1-1.7-.4.3-1.2,1.1-1.7.9-.3,0-1.2-1.4-.4-1.4,0,.3.2.6.3,1l1.9-.7c-.2-.8-1.5.4-1.7.2,0-.3,0-1.4,0-1.4,0,0-2.2.1-2.8,0-.4-.1-1.8-1.1-2.4-1.3-.2-.8,2.2-2.1,2.9-2.4.4-.2,1.4-.1,1.7-.4.4-.3.8-2.5.5-2.8h-.5c1.2,3.2-3.1,2.4-4.5,4.3-.4-.5.9-1.1,1.2-1.2,1.6-.8,4.1-.6,2.7-3-.4,0-.6.5-.9.6-1.9.7-3.9.5-5.7,1.1-.2,0-.8,1.5-1.6,1.5.8.7,1.8.5,1.7-.6h.9c.5.6-.3.4-.5.5-.2.2-.2.5-.7.7-.7.3-1.5.2-1.6-.6,0-.5,1-.4.5-.8,0,0-1.5-.1-1.7-.3-.1-.1,0-.5,0-.7-.3-.9-.5-1.8,0-2.6,0-.8,0-1.6,0-2.4,0-.1,2.6,0,3,0,.3,0,1.3.5,1.4.4.4-.3-.7-.7-1-1-.5,0-1.3,0-1.7-.1-.6-.2-1.2-.9-1.8-.8-.5,0-.8.6-1.2.8-.4.2-1,0-1.1.2-.1,0-.3,1.4-.7,1.4s-.4-.6-.8-.5c.6,2-.7,1.1-.7,1.2-.2.3.6.9.6,1.3,0,.6-.6.6-.6.6.7-.6-.5-1.4-.2-2.1,1.2,0,.5-.2.6-.6,0-.4.5-.7.4-1.1-.4-.2-1,1-1.1,1.2-.3.9.2,2.1-.7,2.6-1.2.7-1.7,0-2.6-.7,0,.9.5,1.9,1.5,1.4l-.6.7c-.8-.6-2-3-2-3.9,0-.5.4-.5.4-.6.2-.4.7-1.6.7-1.7.3-.2,1.9,1.1,1.5-.7-.3-.1-.2,1-.7.5-.1-.1,1-2.1-2.2-.7-.1-.1.3-1.5.5-1.8.3-.4.6-.3.7-.4,0,0-.1-.5.1-.5.2,0,.5.3.9.2.8-.1,2.1-.6,3-.6.6,0,1.1.5,1.5.5.6,0,2.4-.6,3.3-.7,1.1-.1,2.1.1,3.2.1-.3-.7-1.6-.8-2.3-.9-3.3-.3-5.7.4-8.6-1.7,1.8.6,3.5,1,5.4,1.4-.4-.9-4.7-1.2-4.9-2,.1-.8,1.3-1.2,1.6-1.8.1-.3,0-.6.1-.7,1.5-1.2,1.7-2.2,2.8-3.6.4-.5,1.7-1.5,2-1.9.3-.7.2-2.5.8-3.6.2-.4,1-1,1.2-1.3,1.5-2.2,2.6-4.7,4.5-6.7v-.4c-1.3,1.2-2.4,2.6-3.3,4-.2-1.1,1.1-2.4,1.8-3.2.6-.7,2-1.7,2.3-2.5.2-.4.3-.9-.4-.7.5,1.2,0,.5-.8.8-.4.1-.5.5-.9.7l1.2-1.4c-2.2.6-3.6,2.9-5.2,4.3-.7.6-1.6.4-1.3,1.9,0,0,.4-.2.5-.2-.8,2-2.4,2.5-2.8,3.3-.2.4,0,.8-.3,1.2-.1.2-2,1.3-2.5,1.8-.6.6-1.4,2.4-1.9,3-.8.9-3.1,1.9-4,3-1.3,1.5-1.2,3.8-3.2,5.7-.4.4,0-1-.7-.6-.4,1.6-1.4,6.3-2.3,7.4-.1.1-1.7,1.5-1.9,1.5-.4.2-1,0-1.2.2-.2,0-.1.8-.8,1.2-.6.3-2.9.6-3.1,0,0,0-.1.1-.1.1-.2-.1-.2-.7.1-.1,0-.2,0-.6,0-.8-.3-.8-.7-1.5-.7-2.4,0-1.3.8-2.9.5-4.4l-.7,4.5c-.2,0-.4-.2-.4-.4-.1-1,.7-3.4.7-4.7,0-.3.2-.5-.3-.7-.6,3-.7,6.3-1.3,9.4,0,.2-.5.8-.4,0,.2-2.7,1-5.4,1.2-8.1,0-.3.2-.9-.2-.8.2.6-.4,1.1-.5,1.6-.4,2.7-.3,5.4-1,8,0,0-.6.4-.6.7-.1-.2-.3-.6-.2-1-1.3-.3-1.5.5-2,1.5-.9,1.8-1,3.4-.7,5.4-.9-.5-.7-1.6-.7-2.5,0-.5.7-1.5-.2-1.3,0,1.9-.7,3.6-1.7,5.2,0,0,.2-1.3.1-1.4-.7,1.7-1.4,1.8-3.3,1.7-.6-.5,2.2-2.4,2.4-3.3.1-.8-.5-2,0-3l-.4-2.1-.3,3.2c0,.4.2.7.2,1.1,0,0-.3-.1-.4-.2-.4-1.4,0-3.3.1-4.8-.6-.1-.6.2-.7.7-.2,1.4-.1,2.5-.6,3.9,0-.1-.2-.5-.1-.8.1-.9.3-1.8.3-2.7,0-.3.3-.8-.2-.8-.9,1.1-.1,2.8-.6,3.8-.3.6-1.2.7-1.5,1-.2.2-.3.8-.7,1.1-.7.7-2,1.1-2.6,2,1.4.1,2.5-1.5,3.4-2.3,0,0,0,.5-.2.8,0,.1-1.8,1.8-2,1.9-.2,0-1.3.1-1.5,0-.4-.3-.3-1.5-.5-1.8-.3-.3-1.4,0-1.8-.8-.2-.3-.4-1.6-.5-2.1-.3-1.7.1-2.5.1-3.8,0-.6-.4-1.3-.4-1.9.1-1.7,2.9-4.8,4.4-5.8.5-.3,2.3-1,2.4-1.2.4-.6,0-3.6-.4-3.1.3,3.1-.4,2-2.3,2.7-.5.2-1.1,1-1.8,1.3-1,.5-2.3.6-3.2.9-.9.3-1.6,1.2-2.7,1.1.3.6,1.4.8,1.6,0,1.8.9-.5.9-.6,1,0,0,.2.6,0,.9,0,0-1.1,1.2-1.2,1.3-1.4.4-3.3-1-1.8-2-1.1-.4-.3-1.4-.5-2.3.6.1.3,1.4.4,1.7.2.4.8.6.8.1,0-.5-.8-2.2-1.3-2.5v.5c-1.7-1-.4-4.2-3-3.6l.6-.7c-.8,0-.9.4-1.3.7.2-1.1-.4-2-.5-3.1.2-.2,2,.4,2.2-.5-.7.3-2.5,0-2.6.8l1.4,6.8.5-2.9v4.3l-.9-1.2c.2-1.3-1.6-6.6-1.2-7.4.4-1,2-.6,2.9-.7.4,0,.7-.4,1.2-.5,1.3-.2,2.6.4,3.7.3.4,0,.7-.2.4-.5-.2-.1-3.9-.7-4.3-.7-.4,0-.7.4-1.4.4s-3-1-3.6-.6c-.3.2-.5,1.1-1.1,1.6-.4.3-1.8.7-2,.9-.3.5.3,1.9-.1,2.6-.2.2-1.7-1.4-2-.4,0,.5,1.1,1.4,1,2-3,.1-.8.4-.2,1.3.8,1.4,0,1.5-.7,2.3-.1.5-.2.9-.3,1.4,0-.3,0-.6,0-.9l.3-.5c.3-1.1,1.4-2.2-.5-2.6,1.2,1.2-.3,2-.5,3.2-.2,1.3,0,3.8.7,4.9,0-.5,0-1,0-1.5,0,.5.2,1,.3,1.5.9-.3.4-.6.9-1.2.2-.3.6-.4.8-.5.4-.5.5-1.3,1.2-1.5,2.2.8,4.2,1.7,5.1,4,.7,1.7,1,3.5,1.5,5.2.1.4.6.8.6,1.3,0,.5-.8.9-1.1,1.3-.3.5-.2,1-.6,1.5-.7.9-4.1,2.7-4.3,3-.1.2,0,.6-.2.9-.1.3-.5.6-.6.9-.1,1.1,1.5,0,1.9.2,2.3,1.1-2.2,4.3-2.4,5.1,0,.3.2.7.2,1.1-.2,1-.8,1.9-.8,3,0,.4.4.6.4.7,1.2,0,1.2,0,0,.2,0,.7-.1,1.6,0,2.2.1.6.8,1.2.9,1.8.2.7,0,1.4,0,2.1.1.6.8,1.3.9,1.9.6,3.5-1.3,2.7-3.2,4.6,1.1-.4,3.3-1,3.6-2.3,0-.1,0-2.4,0-2.5,0-.5-.9-1.4-1.1-2.3-.2-1,0-2.1-.4-3.1.9.8.4,2.3.8,3.4.2.6,1,1.6,1.1,2,0,.3-.3,3.1-.4,3.3-.4.8-1.7,1.1-2.4,1.4-1.7.6-1.6.4-3.2,1.4-1.4.9-3.2,1.9-4.9,2,.2.7,2.2.3,2.8.2,1.9-.5,2-1.5,4.6-1.4.6-.2,1.1-.7,1.8-.7,1.1,0,2.8.4,4,.3,0,1,2.6,5.7,3.2,6,.3.2.5.2.8,0,.3,0,.4-.3.4-.6.2-1.6-2.5-5.2-2.2-8.1.3-2.5,3-7.8,3.4-2.1,0,0-.2,0-.2-.2-.2-.4-.1-1.6-.5-1.9-.2-.1-.8-.3-.7.1.9-.1.4.9.5,1.5,0,.2.4.1.5.3.3.7-.4.8.7,1.3,0-.2,0-.3,0-.5,0,.2.2.3.3.5.2-.1.4-.2.5-.5.1.2.2.5.5.5-.1-2.7-.9-5.6-.4-8.4.3-1.4,1.6-1.7,2.1-2.7.6-1.2,0-1.1-.3-1.7-.4-.7,2.3-4.1,3.3-1.7-.4.1-.6-.3-.9-.4-.9-.2-1.2.5-1.5,1.1.5.2.8-.6,1.1-.7.2,0,2.2,1.8,2.5,2.2.2.3.3.8.6,1.2.1.2.8.1.5.6,0,0-.4,0-.5.2-.5,1.7,1.1,1.8,1,3.3,0,.4-.8.6-.9,1.2-.4,1.6,0,2.3.8,3.6.1.2.5.3.6.5.2.7,0,1.5.5,2.2.4,0,.2-.5.2-.8,0-.5-.2-1.3-.4-1.8,0,0,.3-.1.5.2.8,1.7,0,4.4.3,5.4.1.4.7.7,1,1.2.2.5,1,3,1.1,3.5.2,1.1,0,2.7.2,3.6.2.8,1.2,1.7,1.5,2.6.3,1,1,3,1.2,3.8.2,1-.2,2.1,0,2.8.6,1.6,2.8,4.6,3.7,6.2.5.8,1.2,3,1.9,3.2,1.7.5-.4-2.7-.6-3.2-1.9-4.6-2.3-9.7-3.6-14.4-.9-3.3-1.2-4.3-.3-7.8.2-.7.6-1.5,1.1-2-.5-.7-1.6-.5-2.1-.9-1.4-1.1-.6-3.3,0-4.6,0-.2,0-.5.4-.3.4.2,1.2,1.1,1.8,1.4.7.4,3,1,3.2,1.1.3.3,1.2,2.9,1.3,3,0,0,.7.1.7,0l-1-2c.7-.1,1,1,1.6.9.3,0,.7-.9,1.1-.9-.3,1.2-1.2,2.7-1.2,3.9,0,.9.5,1.7.5,2.6,0,2.9-.2,4.2.2,7.2,0,.6,0,1.9,0,2.6,0,.6.8.8,1.2.5.4-.3-.1-4.4,0-5.5.1-.8.6-1.5.7-2.2.4-2.1,0-2.5,1.2-4.6.3-1.3.6-2.8,1-3.9.3-1,.6-1.1,1.2-1.8-.6,1-1.2,2.3-1.1,3.6.5-1.2.8-2.4,1.6-3.4,0-.1,2.7-2.5,1.3-2-.5.2-1,1.1-.7-.5l.4.5c0-.2,0-.5,0-.7.2.1.4.3.7.2-.5-.9.5-1.8,1.1-2.6-.2,1.7,1.9,1.3,2.1,1.4,0,0,0,1.7,0,2,0,.2-.4,0-.5.5-.1,1.2,0,1.8-.5,2.9-1.1,1.9-3.4,3.1-5,4.8-.3.3-.4.2-.3.8l4.6-3.7c1-1.3,1.5-2.1,1.7-3.7.2-.5.4-.9.5-1.4-.1.5-.4,1.1-.5,1.4h.7c-1.1,3.8-4.1,5.4-6.8,7.7,1,.5,1.6-.5,2.4-.6l-.7.8c.4.5,1.7,1,2.2.5.1-.2,0-.6,0-.7-.8.3-.8.3-.1-.2.4-1.1,1-1.9,1.7-2.5-.8.8-1.3,1.7-1.6,2.7,1.5-2.1,1.8-2,3.9-3.2.7-.4,1.4-1.5,2.1-2,.5-.4,1.1,0,.8-.9-.3.3-.6.3-1,.5.7-.9.7-1.6,1.2-2.6,0,.2-.3,1.4-.1,1.7.5-.4.3-1,.5-1.4.6-1.3,1.8-.8,2.8-1,.3,0,2.2-1.1,2.5-1.4,1.2-.9,4.3-4.8,5.2-5.1.7-.3,2.4,0,2.8-.4.1-.1.1-.5.3-.8.2-.3,1.2-1.8,1.3-1.8.2,0,.6.9,1.1.7l-.6-1.4c-1.2.4-1.8,2.4-2.5,2.8-.7.4-1.5.2-2.3.4-.2,0-2.5,1.5-2.9,1.8.7-.7,1.2-1.4,2.3-1.8.8-.3,2.2-.3,2.6-.5.8-.6,1.1-2.6,2.5-2.8,1.3-.2.9,3,2.5,3.1.3-2,.2-3.2,2.1-4.5-.1,1.8.5.2.8-.2-.5-.1.9-1.3,1-1,.6,0,1-1.3,1.6-.2.3.6-.2,1.1.9.9-.7-1-.9-2.2-.2-3.3h-.7c0-.1,1.2-1,1.2-1-.3.6-1,4.1.1,3.8.3,0,.2-.9.7-.7,1.1.4.4,3.1.7,4.1.2.7,1.2,2,1.2,3l1.2-.5c-.1,1.7,1.1,2,1.7,3,.2.2.2.5.2.6-.5-.4-1.4-1-1.7-1.5-.2-.4-.2-1.1-.5-1.2-.2-.2-.6.1-.8,0-.2,0-1.8-3.4-1.8-3.7,0-.5.7-3.4-.2-3.4,0,0-.8.5-.8.7,2-.3.2,1.2.5,2.7,0,.2,1.4,3.5,1.5,3.6.6.6.8.6,1.5,1.4.7.8,2.3,1.9,2.8,2.7.4.6,1.4,2.9,1.5,3.1.2.1.9.2,1.4.4,1.2.7,2.2,2.3,3,2.9.4.2.9.2,1.4.5,1.9,1.1,1.8,2,2.5,3.7.3.7,1.2,1.1.8.2-.5-1.2-.8-2.5-1.6-3.4.2-.4.6,0,.7.2.5.7.7,2.3,1.2,3.1.3.7,1,1.2,1.3,1.9h-.5c0,.5,0,1.1,0,1.7,0,.7.4,1,.5,1.4,0,.4-.1,1.6,0,1.7,0,0,.5,0,.7.2.6.5,1.2,1,2,1.3,0-1.1-2-1.6-2.3-2.2-.2-.4-.3-1.7-.4-2.3,0-.3-.3-.8.2-.8.5.7.3,2.7.6,3.1,0,.1,1.5.8,2.1,1.5.5.7.7,1.4,1.1,2,1,1.4,2.1,2.7,3.2,4.1.2-.2.5-.4.6-.6.3-.9-2.7-5-3.2-6.3-.8-2.1-1.2-4.3-1.9-6.4.3,0,.6.4.7.6.1.4-.2,1.1.3,1,.6-1.9-.7-1.9-1.1-2.8-.3-.6-.2-1-.4-1.4,0,0-.8-.4-.8-.9,0-.5,1-1.4.9-2l-1.4,1.3c.1.8.6,1.5.9,2.3,0,0-.5-.3-.8-.8-.3-.5-.6-1.4-.5-2,0-.3.6,0,.7-.1.2-.2-.3-1.7.8-1.2-.7-2,1.7-1.6,1.7-3.9l-2.4-1.2.2-1.3.7,1.4c.1-.7-.5-1-.7-1.6-.2-.7-.2-4.2,0-4.9.3-1.1,3.3-1,4.2-.9.7,0,1.5,1,1.3,1.2-.4.4-.6-.8-1.3-.9-.8-.1-1.5.2-2.2.2-.8,0-1.7-.6-1.8,1.2,1.5-1.6,3.2-1.1,4.8,0,2.2,1.4,2,2.6,3.2,4.4.1.2,1.9,2.4,2,2.5,1.1,1.1,2.9,1.7,4.6,3.5.4.4.3,1,1.3,1.3.4-.2,0-.6-.2-.8-.3-.5-.8-1.4-1.2-1.8,1.5,1.3,1.6,2.3,2.7,3.7,1,1.2,2.5,2,3.2,3.5.2.2.4.2.6.5.4.6.6,2,1,.1-.8-1-1.4-2.6-2.1-3.5-.5-.7-1.5-1.3-2.2-2.2-1.1-1.6-2.3-4.4-3.3-5.8-.2-.3-.7,0-1-.2-1.2-.5-1.7-2.8-2.5-3.8-.4-.6-1.8-1.3-1.9-1.4-.2-.3-.4-1.5.2-1.5.6,0,1.5.3,2.2.1-.2-.8-1.7-.1-2-.7.3-.2,1.7,0,1.7,0,.1-.1,0-3,0-3.7,0-.6.2-2.1.9-2.3.3,0,1.4.3,1.5.7l-1.7-.2-.3,1.4c.4,0,.9-.9,1.1-.9.4,0,1.8,1.8,2.2,2,.6.3,2,.5,2.5,1,.5.4.3,1,.5,1.4.2.3.6.5.8.9.3.8-.4,1,1,1.2.2,0,.6.2.5-.2-.8,0-1-1-1.3-1.7-.6-1-1.2-.4-.4-1.9,0,.3,0,.7,0,1l1.4,2.1-.7-2.5c1-1.5.5-4.1,2.2-4.9.6,1,1.2,1.7,1.5,2.9-1.2.3-1.6-.6-2.4-1.2.5,1-.4,1.5-.5,2.4.8.2.4-.6.5-.7.8-.6,3.5,3.2,3.6,4,0,.4-.8,1.3-.9,1.9-.1.7,0,1.5,0,2.2l.2-.7c.1-.3.5.8.9,1,.3,0,0-.4.1-.5,0,0,.7-.3.9-.6.3-.5.2-1.4,1.3-1.6v6.3c0,0,.7,1,.8,1.3.3.6-.2,1.1.9.9-1.7-3-1.5-6.5-1.6-9.8,0-.4-.1-.6.4-.7.3,2.2,0,5.1.3,7.2,0,.3,1,3.2,1.2,3.3.2.1.7-.2.7-.4,0-.1-.6-1.3-.6-1.7-.4-2.1-.5-4.2-.3-6.2l1.2.5c0-.9-.1-1.7-.2-2.6,0,.2.3.7.5.7l.5-1.9c-.4.2-1,.7-1,1.2,0,0-.2,0-.2-.2,0-.7,1.7-2.7,2.2-3.3.9-1.2.3-1,2-2-.2.2-1,1.3-1.3,1.4l-1.6,2.4c.5,0,.8-.6,1.1-.9.8-.9,1.2-2.5,2.8-2.2.1-.5-.5-.9-1-.7.2,0,.6-.7,1-.5,0,0,.7,2.2,1.2,1.7,0,0-.4-.6-.4-.9,0-.7,1.9-1.8,2.6-1.5-.6,1-.9,2.5.7,1.4-.6,2.7.4,1.7,1.5,2.7.4.4.7,1.5.7,1.6,0,0,1.4-.5,2.1-.5.7,0,1,.5,1.1.5-.4,0-1.3-.1-1.6-.1-.6,0-1.3.6-1.8.3-.3-.2-.3-1-.7-1.5-.5-.5-1.4-.5-1.6-.8-.3-.4,0-1.2-.1-1.4,0,0-.8,0-1.1-.5-.2-.3.3-.8.4-1.1.2-1-2.2.7-1.7,1.3.2,0,.9-.6,1-.5,0,0,0,.5.1.7.2.4.7.5.8.9.1.3,0,.8,0,1,0,0,1.2.1,1.6.5.5.5.3,1.4,1.5,1.6.9.2,4.5.2,5.6,0,.5,0,1-.2,1.3-.6l-2.4.4,2.4-.9c-.8-.2-1.6,0-2.5,0-.3,0-3.2-.7-3.3-.8-.5-.4-.2-2.3,0-2.9,0-.2,0-.5.4-.3.6.2,2.5,2.1,2.7,2.1.2,0,1.2-.8,1.8-.4l-1.5.9c2.7-1.1,3.6,2.3,5.7,2.6.7.1.4,0,0-.3-.9-.7-1.6-1.6-2.4-2.2-.6-.5-1.6-.6-2-1.3,1.7-.2,3.7,3.2,4.8,3.3,1.3.2,1.6-1.1,2.7-1.4.8-.1,1.5,0,2.3-.1.6-.1,3.7-1.2,3.9-1.1.2,0,2.6,2.4,3,2.8.3.4,1.2,2.3,1.8,1.4.8-1.2-1.6-3.6-1.8-4.5-.4-1.2,1.2-.5,1.7-.5,1.1,0,.8-.9,2.4.2,2,1.4,3.1,5.1,3.3-.2l-.5.2c-.3-1.5-.4-2.6,1.6-2.4,1.8.1-.2,1.1-.9,1.7,0,0-.1.5.1.5.5,0,2.1-.5,2.9-.3.3,0,.1.4.2.5-.5-.7-4,0-3.2,1,.3.4.6-.5.9-.6,2.1-.5,2.3,1.9,1.7,3.4-.4,1.1-2.3,2.3-1.7,3.4l2.4-3.1c-.4.9-2.2,3.2-2.2,3.5,0,0,.4.4.5.4,0-.6,2-3.1,2.3-3.1.7,0,.7,5.3-1.3,5.2.1-.4.4-.5.5-1-1,.5-1.8,1.5-2.6,2.4l-.2-.5c-1.7,1.2-3.5,2.5-5,3.9-.9-.3-1.8-.5-2.8-.4-.8.1-3,1.4-3.4,1.4-.2,0-2.9-1.1-3.1-1.2-.4-.2-1.8-1.3-2.2-1.6-1.7-1.4-2.9-3.3-4.2-5-3.4-1.3-3.1,3-.4,3.6,0-1.1-2.7-2.3-1.4-3.4,1.2-1,1.6.8,2.1,1.3.8,1,1.7,1.8,2.4,2.9-.2.4-.5,0-.7-.2-.9-.9-1.9-2.5-2.7-3.6h-.8c-.6.8.5,1,.9,1.6.9,1.5,1.4,3.4,2.3,4.9.4.6,3.2,3.5,3.2,3.8.1.6-1.2,1.3-1.6,1.5M219.2,118.2,187.3,132.2c0,0-.1.4-.6.5-.2,0-2.8-.4-3.1-.5-1-.3-1.8-1.4-2.6-1.7-1-.4-2.1-.4-3.2-.4l2.3,1.2c.5.7,1.3,1,1.8,1.5.7.7,1.8,2.7,2.3,3,.3.2,1.8.2,2.1,0,0,0,0-.4.2-.5.6-.4,3.8-1.5,4.2-.9.6.8-1.9,2-1.3,2.9.8-.7,1.5-2.1,2.3-2.8.8-.7,2.7-1.8,3.8-2,1.2-.2,3-.1,4,.2.4.1,1,0,1.2.6,0,.1-.2,1.8-.3,2-.4,1.5-2,2.9-2.9,4.3,0,.2.4,0,.5.1l3.1-4.5,1-1c.2,0,2,3.1,2.8,2.1.3-.4-1.9-3.3-1.7-3.6,0,0,.6,0,.7,0-.4.2.5,1.8.7,2.2,0,.1.5.6.7.7.4-1-1.2-1.5-1-2.2,0-.1,1.8-1.9,2.2-1.6-.3,1.1-.6,2.1,1,1.9,0-.4-.4-.2-.6-.5-.5-.6,1-1.5,1.1-1.7-.3.5-.9,1.2-.6,1.7.6-.5,1.1-1.5,1.7-2.1.1-.1.4,0,.4,0l-1.1,1.9c.9-.7,1.8-2.1,2.9-2.4.8-.2,3.4-.1,3.6-.4,0-.1-.4-.7-.1-1.2,0-.2,1.3-1.1,1.5-1.1.6,0,3.3,1.3,3.5,1.1-.8-2.9-3.2-2.4-3.2-6,0,.2.3,1.2.5,1.2l-.2-4.5c.1-.1,2.6.4,3,.5.5.1,1.1.7,1.5.6.6,0,1.3-1.2,1.8-1.5-.7-.3-1.1.9-1.8.8-.4,0-.8-.9-1.1-1-.8-.3-3-.2-2.8-1.6M103,58.6c-.2.4-.5.8-1,.7.2-.4.5-.8,1-.7ZM100.1,65c-.1.8-1.2,1.5-1.6,2.2-.3.7-.5,2-.6,2.7,0,.3,0,.7-.5.8.3-2.3.6-4.3,2.7-5.7ZM96.7,71.5c0,.4-.3.8-.7,1,0-.4.3-.8.7-1ZM93,76.6s0,0,0,0h0c0,0,0,0,0,0ZM92.5,81.9s0,.2,0,.2h-1.5c0-.5,1.2-.5,1.5-.2ZM63.2,96.6c-.2.5-.5.9-1,1.3.5-.4.8-.8,1-1.3ZM39.7,82.4s.3.8.2.9c-.9-.2-.9-1.4-.2-.9ZM41.6,88.1c-.3,0-1.6-.9-1.7-1-.1-.2,0-.7.4-.5.2.1.3.5.4.6.4.3,1.1,0,.9.8ZM41.8,83.3c-.5-1.2-1.1-3.5-.7-4.7l1.1,2.8c.2.4.3,1.9,0,2.2-.3.3-.4,0-.5-.3ZM43.1,85.3c-.2,0-.7-.5-.7-.6-.3-.7,1-.3.7.6ZM43.8,119.6c0-.7-.2-2.1.7-2.3,0,.1-.6,1.2.1.6-.1-1.1,0-1.5,1.1-2.1-.5,1.4-.8,2.8-1.9,3.8ZM49.7,98.6h.7v.5h-.7v-.5ZM49.1,117.4s0,0,0,.1c0-.3,0-.5-.1-.7,0,0,.1.3.1.5ZM46,96.8c-.4-1.2-.6-2.2-.7-3.5-.1-.4-1.1-2.2-.4-2.4.9-.2,1.7,1.3,1.8,1.9.3.3.7.7.7,1.3,0,.4-.7,2.8-.9,3-.4.4-.4,0-.5-.4ZM48.5,98.5c-.6.5-1.3.6-2,.3l1.5-2c.9-.6,1.5.9.5,1.7ZM49.5,118.8l-.3-.2h-.3s0,0,0,0c0,0,0-.2,0-.3,0,.2,0,.3.2.4h.3c0,.1,0,.1,0,.2ZM49.2,115.8c-.3-.3,1.2-1.7,1.5-1.4.3.3-.9,1.6-1.5,1.4ZM52.8,96.9c0-.4.1-.5.4-.7v.7c.1,0-.4,0-.4,0ZM55.9,111.2c-.4,1.3-1.3-1.3.3-.3.6.4.9,1.7,1.1,2.4-1.6-.1-.2-1.5-1.3-2.1ZM62.6,100.7c.4,0,.9-.1,1.2-.3-.4.1-.8.2-1.2.3ZM66.7,98.4s.5.9-.1.7c-.7-.3-.3-1.1.1-.7ZM65.3,100.3c.9-2.1,1.3.2.6.2,0,0-.3-.3-.6-.2ZM72.3,89.6c.8.6.6,1.8,1,2.6-1.6,0-1.1-1.6-1-2.6ZM83.4,121.6c.6,0,.9.4,1,1-.1-.5-.4-.8-1-1ZM97.9,91.2c-1-.5-.2-1.8-.2-2.6.3,0,.5,1.1.5,1.3,0,.4-.2.8-.2,1.3ZM124.2,96.7c1.8-1.9-.3-3.4-1.7-4.8.7.3,2.4,1.5,2.6,2.1,0,.3-.2.8,0,1,.2.3,1,.2,1.1.7-.9-.1-1.1.9-1.9,1ZM142.8,121.2c.6.8,1.7,1.3,1.8,2.4l-2.2-2.2c-.7-1.6-1.6-3.2-2.9-4.3.4-.3,1.2.6,1.3.8.4.5.6,1.1.9,1.6.4.6.6,1.2,1,1.7ZM152.3,98.6v.7c.1,0-.4,0-.4,0,0-.4.1-.5.4-.7ZM152.2,100c.4-.4.9.9,1,1.2-.5.2-1.2-1-1-1.2ZM154.4,100s.2,1.2.2,1.4c-1.1.2-.8-2.1-.2-1.4ZM156.3,112.2c.7.4,1.3,1.1,1.2,1.9l-1.2-1.9ZM157.3,119.1c-.4,0-.2-.5-.1-.7.2-.6.7-1.1.8-1.8.1-.8-.2-1.5-.1-2.2,1.1,1.6,0,3.3-.6,4.8ZM166.8,88.7c-.4-.5-1.8-1.3-2.3-1.8-.3-.3-1.2-1.4-1-1.7.8,1.2,2.8,2.3,3.5,3.2.4.4.4.9.6,1.3.9,1.2,1.9,2.6,1.5,0-.2-1.5-.8-2-1.7-3.1-.5-.3-.1.4,0,.5.5,1,1.5,2.1,1.4,3.4-.9-.5-.8-1.4-1.2-2.1-.9-1.4-3.2-2.6-4.3-4.2-1.3-2-.4-3.4-.7-5.5-.1-.8-.9-1.6-.4-2.5.6.6.7,1.6,1,2.3.7,1.4.9,2,1.5,3.3.3.6,1.2.9,1.3,1.7.4,0,.3-.3.2-.6-.2-1.1-.8-.9-1.2-1.5-.2-.4-1.1-2.5-1.4-3.2-1-2.3-2-5-2.6-7.4.8.4.6,1.7.8,2.4,1.2,3.2,3.1,6.1,4.4,9,.4.9.6,2.4,1,3.3.4,1,1.5,1.8,1.8,2.5.5,1.3,0,2.6.7,3.7-2.1,0-2.3-2.2-3.2-3.2ZM187.7,98.4v-.5c.3,0,.6.1.7.5h-.7ZM189.9,99.1c-.1.1-.7,0-.9,0,0-2.6,1.8-.7.9,0ZM208.1,131.5c0-.1.1-.3.1-.4,0,.1,0,.3-.1.4Z" style="fill: #b6bc3e;"/>
      <path d="M101.1,93.6l-2.3-1.7c-.2,0-.1.6-.1.7.1.5,1.9.7,2.4,1Z" style="fill: #939e31;"/>
      <path d="M195.5,103.4c1.1,0,2.7-1.2,3.6-1.4.8-.2,1.2,0,1.9.2.5,0,.4,0,.3-.5-.9,0-1.9-.1-2.7,0-.6.1-1.1.6-1.6.8-1.3.4-3.2,1.1-4.4.4-.1.7.2.4.5.5,1.2.5,2.5.5,3.6.9.3,0,.7,0,1,0-.3-.8-1.8-.2-2.2-.9Z" style="fill: #939e31;"/>
    </g>
  </g>
</svg>